<svg xmlns="http://www.w3.org/2000/svg" width="665" height="72" viewBox="0 0 665 72">
  <g id="Group_141" data-name="Group 141" transform="translate(-2765 319)">
    <g id="Rectangle_286" data-name="Rectangle 286" transform="translate(2765 -319)" fill="#fff" stroke="#707070" stroke-width="1" opacity="0">
      <rect width="665" height="72" stroke="none"/>
      <rect x="0.5" y="0.5" width="664" height="71" fill="none"/>
    </g>
    <g id="Group_140" data-name="Group 140" transform="translate(0 -92.16)">
      <g id="Group_138" data-name="Group 138">
        <path id="Path_123" data-name="Path 123" d="M-241.24,6.32l-1.4-2.16-1.4,2.16h-9.12l5.96-9.16-4.16-6.32V-20.28h7.96v9.48l.68,1.04.68-1.04V-24.56h-1.52l-.84,3.48h-7.92l2.56-10.72h7.92l-1.12,4.72h10.36v2.52h-1.48v15.4l-4.16,6.48,5.72,9ZM-252.2,2.76l-19.12,2.08V2.12l.68-.08V-20.12h6.36V1.36l1.08-.12V-26.28h-8.12v-2.68h19.12v2.68h-2.76v11.64h2.24v2.68h-2.24V.36l2.76-.28Zm47.48-14.08-1.8,13.76,6.8-.68-1.24-10.28h8.2l1.84,15.12h-8.2l-.24-1.96-17.36,1.72-.4-2.88,1.56-.16,1.96-14.64h-3.48v-2.72h8.12v-8.64H-216v-2.68h7.04v-6.4H-199v6.4h7v2.68h-7v8.64h8.08v2.72Zm-14.4-19.2.56,9.2h-8.72l-.56-9.2Zm0,11.32.56,9.28h-8.72l-.56-9.28ZM-227.4-8h8.84l-1.36,14.36h-8.76Zm60.24-23.72V3.76h-1.72V-31.72h-8.56V3.76h-9.08V6.44h37.28V3.76h-9.36V-31.72Zm-20.28,5.8,2,22.52h7.32l-2.24-22.52Zm31.92,0L-157.8-3.4h7.4l2-22.52Zm24.92,7.36-3.24-2.32-.44,1.16H-144l4.48-12.12h9.96l-1,2.56h19.4a2.381,2.381,0,0,1,1.74.74,2.427,2.427,0,0,1,.74,1.78v5.48l-7.72,3.76,9.56,6.76h-13.04l-4.16-3-6.16,3h-14.72Zm7.2-3.92,4.6-2.52v-.76a.742.742,0,0,0-.84-.84H-131.6l-.36.96h4.08Zm12.2,14.64a2.381,2.381,0,0,1,1.74.74,2.427,2.427,0,0,1,.74,1.78V6.44h-12.36V3.56h2.36V-4.28a.742.742,0,0,0-.84-.84h-8.96l-3.44,11.56h-10.4l3.76-11.56h-4.2V-7.84h5.08l.76-2.32H-127l-.68,2.32Zm21.56-12.48h-2.12V6.36h-9.28V-20.32h-2.16v-2.72h2.16v-8.6h9.28v8.6h2.12Zm18.44-5.8a2.381,2.381,0,0,1,1.74.74,2.427,2.427,0,0,1,.74,1.78V6.44h-9.56V3.56h1.72V-22.52a.742.742,0,0,0-.84-.84h-.04l-2.04,29.8h-8.08l1.88-29.8h-3.08v-2.76h3.24l.36-5.52h8.28l-.36,5.52Zm-16.24,24h-3.4l.88-16.8h3.48Zm22.64-16.8v16.8h-3.04v-16.8ZM-23.96,6.4H-34.84V3.44h2.88V-27.28q0-.8-.84-.8H-50.2V6.4h-8.84V-30.8h32.6a2.394,2.394,0,0,1,1.76.72,2.394,2.394,0,0,1,.72,1.76ZM-33.4-21.88H-49.2V-24.6h15.8Zm-.24,21.6H-48.56V-18.04h13.28a1.58,1.58,0,0,1,1.16.48,1.58,1.58,0,0,1,.48,1.16ZM-42.4-15.32V-2.96h1.84V-14.52a.707.707,0,0,0-.8-.8ZM18.12-27.8h-26q-.84,0-.84.8V3.44H18.12V6.08H-17.84V-28a2.362,2.362,0,0,1,.74-1.76,2.461,2.461,0,0,1,1.78-.72H18.12Zm-1.36,2.72L9.48-11.8l6.96,13H7.16L4.8-3.24,2.24,1.44H-7.08L.24-11.8-7-25.32H2.24l2.68,5,2.64-4.76ZM61.12-9.24H56.08l4.04,15.6H51.16l-3-12.4-3.2,12.4H36.04l4.52-15.6H36.84v-2.68H41.8v-11.8H37.72v-2.76H41.8V-31.8h8.8v5.32h7.08a2.381,2.381,0,0,1,1.74.74,2.427,2.427,0,0,1,.74,1.78v12.04h.96ZM36.92-.92,23.36,2.04V-.6l2-.44V-17.56h-2v-2.68h2v-9.52h9.56v9.52h2v2.68h-2v14.4l2-.44Zm13.68-11h1.68V-22.88a.742.742,0,0,0-.84-.84H50.6ZM87.48-25.2H85.96v-2.64h1.8l.44-3.96h6.52l-.44,3.96h8.4v2.64H94l-1.04,9.8h1.12v-6.8h6v6.8h2.6v2.64h-2.6v5.2h2.6V-4.8h-2.6V2H92.24V-4.8H86.6V-7.56h5.64v-5.2H86.08Zm-15.6,5.68H65.52l1.76-11.64h6.28L73-27.28h3.68v2.64H72.6Zm6.28-5.04-.32-6.52H84.8l.28,6.52ZM102.72,3.36V6.28H78.16V-22.64H85.2v26ZM65.84-17.2H77.12v2.68H75.24v5.56h1.88V-6.2H75.24V1.24L77,.72v2.8L67,6.36l-.4-2.6,1.44-.44V-6.2h-2.2V-8.96h2.2v-5.56h-2.2Zm50.4-4.04H107.4l4.24-10.4h8.88l-.88,2.12h6.64v2.8h-7.8Zm9.88,0,4.24-10.4h8.92l-.88,2.12h6.48v2.8h-7.64l-2.28,5.48Zm-7.44-4.2h5.6l1.2,4.2h-5.6Zm24.88,0,1.56,4.2h-6.08l-1.56-4.2Zm-2.2,6.36a2.381,2.381,0,0,1,1.74.74,2.427,2.427,0,0,1,.74,1.78v4.52h-2.36a1.04,1.04,0,0,1,.04.32V-5.4h-20.2v2.24H139.8a2.381,2.381,0,0,1,1.74.74,2.427,2.427,0,0,1,.74,1.78V6.32h-31V-12.04h-2.24v-7.04H121.4v-1.68h10.08v1.68Zm-7.04,4.84v-1.32a.742.742,0,0,0-.84-.84H118.56v2.16Zm-2.88,3.56a.742.742,0,0,0-.84-.84h-9.28v3.44h10.12ZM121.32-.48V3.64H132.2V.36a.742.742,0,0,0-.84-.84ZM187.36,3.6V6.24H162.64V3.6h7.76V-2.04h-6.48V-4.76h6.48V-10.4h-7.04V-30.88h20.8a2.381,2.381,0,0,1,1.74.74,2.427,2.427,0,0,1,.74,1.78V-10.4h-7v5.64h6.44v2.72h-6.44V3.6ZM171.24-28.2h-1.48v6.04h1.48Zm7.56,6.04h1.48v-5.2a.742.742,0,0,0-.84-.84h-.64Zm-29.52-5.6H162.6v2.68h-2.32v10.44h1.76V-12h-1.76V-1.96l2.32-.52V.24l-13.32,3V.56l2.28-.52V-12h-1.92v-2.64h1.92V-25.08h-2.28Zm21.96,8.32h-1.48v6.32h1.48Zm7.56,6.32h1.48v-6.32H178.8Zm26.36,4.28H191.4v-2.68h13.76V-28.28h-12.4V-31h34.96v2.72H215.28v16.76h13.8v2.68h-13.8V6.36H205.16Zm-1.4-5.32h-8.68L193.6-25.84h8.44Zm13.2,0,1.68-11.68h8.48l-1.48,11.68Zm42.84-3L234.08-14.6l-.32-2.96,1.4-.12,6.76-14.12H252l-5.76,13.12,12.84-1.12-2.36-8.48h10l3.92,14.04h-10Zm6.64,4.44a2.394,2.394,0,0,1,1.76.72,2.394,2.394,0,0,1,.72,1.76V6.44H236.08V-12.72Zm-7.52,3.48q0-.8-.84-.8H246.12V3.8h12.8Z" transform="translate(3158 -193)" fill="#fff"/>
        <path id="Path_124" data-name="Path 124" d="M13.416,4.758,4.715,17.2h5.43a2.962,2.962,0,0,0,1.919-.547,4.694,4.694,0,0,0,1.187-2.217l.322.059L12.947,18H2.166v-.361l8.5-12.09H6.424A3.738,3.738,0,0,0,4.9,5.778a1.627,1.627,0,0,0-.723.664,5.567,5.567,0,0,0-.454,1.626H3.348l.273-3.311ZM18.74,10.9h6.152V7.111a4.434,4.434,0,0,0-.127-1.338.874.874,0,0,0-.41-.42,1.8,1.8,0,0,0-.889-.234H23V4.758h5.664v.361h-.469a1.857,1.857,0,0,0-.889.225.821.821,0,0,0-.425.474,4.708,4.708,0,0,0-.112,1.294v8.545a4.385,4.385,0,0,0,.127,1.328.88.88,0,0,0,.4.42,1.851,1.851,0,0,0,.9.234h.469V18H23v-.361h.469a1.4,1.4,0,0,0,1.182-.479,2.87,2.87,0,0,0,.244-1.5V11.623H18.74v4.033a4.385,4.385,0,0,0,.127,1.328.874.874,0,0,0,.41.42,1.8,1.8,0,0,0,.889.234h.479V18H14.971v-.361h.469a1.414,1.414,0,0,0,1.191-.479,2.974,2.974,0,0,0,.234-1.5V7.111a4.434,4.434,0,0,0-.127-1.338.88.88,0,0,0-.4-.42,1.851,1.851,0,0,0-.9-.234h-.469V4.758h5.674v.361h-.479a1.857,1.857,0,0,0-.889.225.846.846,0,0,0-.42.474,4.52,4.52,0,0,0-.117,1.294ZM33.752,5.48v5.234h2.91a2.372,2.372,0,0,0,1.514-.342,2.2,2.2,0,0,0,.566-1.582H39.1V13.4h-.361a5.04,5.04,0,0,0-.273-1.24,1.222,1.222,0,0,0-.576-.537,2.942,2.942,0,0,0-1.23-.2h-2.91v4.365a4.055,4.055,0,0,0,.078,1.069.614.614,0,0,0,.273.3,1.661,1.661,0,0,0,.742.112h2.246a6.085,6.085,0,0,0,1.631-.156,2.432,2.432,0,0,0,.977-.615,7.515,7.515,0,0,0,1.24-1.826h.391L40.188,18H29.982v-.361h.469a1.857,1.857,0,0,0,.889-.225.822.822,0,0,0,.425-.469,4.6,4.6,0,0,0,.112-1.279v-8.6a2.848,2.848,0,0,0-.254-1.553,1.513,1.513,0,0,0-1.172-.391h-.469V4.758H40.188l.146,2.9h-.381A4.576,4.576,0,0,0,39.5,6.223a1.559,1.559,0,0,0-.737-.6,4.423,4.423,0,0,0-1.377-.146Zm8.273-.723h3.594l8.1,9.932V7.053a2.628,2.628,0,0,0-.273-1.523,1.448,1.448,0,0,0-1.143-.41H51.84V4.758h4.609v.361H55.98a1.345,1.345,0,0,0-1.191.508,2.963,2.963,0,0,0-.215,1.426V18.215h-.352L45.492,7.551v8.154a2.709,2.709,0,0,0,.264,1.523,1.466,1.466,0,0,0,1.143.41h.469V18H42.758v-.361h.459a1.357,1.357,0,0,0,1.2-.508,2.963,2.963,0,0,0,.215-1.426V6.5a6.035,6.035,0,0,0-.874-.889,3.209,3.209,0,0,0-.874-.4,3.113,3.113,0,0,0-.859-.088Zm27.482-.3.342,4.18h-.342A5.716,5.716,0,0,0,68.17,6.281a4.188,4.188,0,0,0-3.037-1.143,4.319,4.319,0,0,0-3.848,2,7.192,7.192,0,0,0-1.1,4.023,8.044,8.044,0,0,0,.732,3.457,5.141,5.141,0,0,0,1.919,2.29,4.606,4.606,0,0,0,2.437.728,5.382,5.382,0,0,0,1.416-.186A5.648,5.648,0,0,0,68,16.906V13.078a3.54,3.54,0,0,0-.151-1.3,1.022,1.022,0,0,0-.469-.469,2.711,2.711,0,0,0-1.118-.161v-.371h5.127v.371h-.244a1.09,1.09,0,0,0-1.045.508,3.43,3.43,0,0,0-.2,1.426v4.053a9.922,9.922,0,0,1-2.217.889,9.7,9.7,0,0,1-2.432.283,7.06,7.06,0,0,1-5.83-2.461,6.573,6.573,0,0,1-1.494-4.258,7.118,7.118,0,0,1,.84-3.35A7.171,7.171,0,0,1,61.51,5.3a6.7,6.7,0,0,1,3.438-.85,6.771,6.771,0,0,1,1.313.117,12,12,0,0,1,1.675.518,2.7,2.7,0,0,0,.732.205.391.391,0,0,0,.317-.171,1.306,1.306,0,0,0,.161-.669Zm6.76,1.025v5.205H78.68a1.719,1.719,0,0,0,1.216-.366,2.423,2.423,0,0,0,.513-1.45h.361v4.482h-.361a2.617,2.617,0,0,0-.2-1.133,1.266,1.266,0,0,0-.527-.542,2.179,2.179,0,0,0-1-.181H76.268v4.16a4.385,4.385,0,0,0,.127,1.328.874.874,0,0,0,.41.42,1.851,1.851,0,0,0,.9.234h.479V18H72.5v-.361h.469a1.414,1.414,0,0,0,1.191-.479,2.974,2.974,0,0,0,.234-1.5V7.1a4.385,4.385,0,0,0-.127-1.328.88.88,0,0,0-.4-.42,1.815,1.815,0,0,0-.9-.234H72.5V4.758h9.854l.127,2.91h-.342a4,4,0,0,0-.591-1.362,1.94,1.94,0,0,0-.83-.63,4.432,4.432,0,0,0-1.528-.2Zm15.2,8.086H86.338l-.9,2.09a3.309,3.309,0,0,0-.332,1.152.669.669,0,0,0,.288.532,2.517,2.517,0,0,0,1.245.3V18h-4.17v-.361a2.247,2.247,0,0,0,1.074-.381,5.982,5.982,0,0,0,1.1-1.9l4.658-10.9h.342l4.609,11.016a5.021,5.021,0,0,0,1.011,1.724,2.06,2.06,0,0,0,1.265.444V18H91.309v-.361a1.959,1.959,0,0,0,1.069-.264.68.68,0,0,0,.278-.547,4.049,4.049,0,0,0-.391-1.357Zm-.273-.723L88.945,7.492l-2.3,5.352Zm13.762-8.086h4.619v.361h-.254a1.992,1.992,0,0,0-.742.225,2.9,2.9,0,0,0-.889.645,8.784,8.784,0,0,0-.986,1.367l-3.193,5.029v3.32a2.628,2.628,0,0,0,.273,1.523,1.507,1.507,0,0,0,1.172.41h.43V18H99.758v-.361h.469a1.345,1.345,0,0,0,1.191-.508,2.963,2.963,0,0,0,.215-1.426V12.57L98,7.023A11.7,11.7,0,0,0,97.126,5.8a3.431,3.431,0,0,0-.952-.586,1.3,1.3,0,0,0-.566-.1V4.758h5.664v.361h-.293a1.707,1.707,0,0,0-.845.215.694.694,0,0,0-.386.645,3.09,3.09,0,0,0,.6,1.27l2.764,4.268,2.6-4.082a3.02,3.02,0,0,0,.586-1.367.867.867,0,0,0-.142-.488.947.947,0,0,0-.405-.337,1.967,1.967,0,0,0-.791-.122Zm9.592.723v5.234h2.91a2.372,2.372,0,0,0,1.514-.342,2.2,2.2,0,0,0,.566-1.582h.361V13.4h-.361a5.04,5.04,0,0,0-.273-1.24,1.222,1.222,0,0,0-.576-.537,2.942,2.942,0,0,0-1.23-.2h-2.91v4.365a4.055,4.055,0,0,0,.078,1.069.614.614,0,0,0,.273.3,1.661,1.661,0,0,0,.742.112h2.246a6.085,6.085,0,0,0,1.631-.156,2.432,2.432,0,0,0,.977-.615,7.515,7.515,0,0,0,1.24-1.826h.391L120.98,18H110.775v-.361h.469a1.857,1.857,0,0,0,.889-.225.822.822,0,0,0,.425-.469,4.6,4.6,0,0,0,.112-1.279v-8.6a2.848,2.848,0,0,0-.254-1.553,1.513,1.513,0,0,0-1.172-.391h-.469V4.758H120.98l.146,2.9h-.381a4.576,4.576,0,0,0-.454-1.436,1.559,1.559,0,0,0-.737-.6,4.423,4.423,0,0,0-1.377-.146ZM141.8,4.758v.361a1.672,1.672,0,0,0-.84.186,1.826,1.826,0,0,0-.615.693,11.312,11.312,0,0,0-.615,1.631L136.041,18.3h-.391l-3.018-8.467-3,8.467h-.352l-3.936-11q-.439-1.23-.557-1.455a1.284,1.284,0,0,0-.532-.552,1.943,1.943,0,0,0-.913-.181V4.758h4.9v.361h-.234a1.183,1.183,0,0,0-.791.234.721.721,0,0,0-.273.566,6.744,6.744,0,0,0,.43,1.572l2.607,7.432,2.2-6.318-.391-1.113L131.48,6.6a4.834,4.834,0,0,0-.459-.859,1.189,1.189,0,0,0-.312-.312,1.756,1.756,0,0,0-.488-.254,2.119,2.119,0,0,0-.586-.059V4.758h5.156v.361h-.352a1.154,1.154,0,0,0-.8.234.822.822,0,0,0-.254.635,6.267,6.267,0,0,0,.439,1.738l2.539,7.2,2.52-7.295a6.135,6.135,0,0,0,.43-1.68.7.7,0,0,0-.142-.42.751.751,0,0,0-.356-.273,2.848,2.848,0,0,0-.967-.137V4.758Zm10.2.361V4.758h4.688v.361h-.5a1.345,1.345,0,0,0-1.2.654,2.988,2.988,0,0,0-.205,1.406v5.371a9.492,9.492,0,0,1-.4,3.091,3.88,3.88,0,0,1-1.553,1.885,5.533,5.533,0,0,1-3.149.786,5.931,5.931,0,0,1-3.291-.752,4.072,4.072,0,0,1-1.592-2.021,11.221,11.221,0,0,1-.312-3.262V7.1a2.594,2.594,0,0,0-.337-1.6,1.386,1.386,0,0,0-1.089-.381h-.5V4.758h5.723v.361h-.508a1.313,1.313,0,0,0-1.172.518,2.891,2.891,0,0,0-.244,1.465v5.771a12.719,12.719,0,0,0,.142,1.768,3.762,3.762,0,0,0,.513,1.553,2.789,2.789,0,0,0,1.069.918,3.7,3.7,0,0,0,1.714.361,4.726,4.726,0,0,0,2.324-.566,3.035,3.035,0,0,0,1.4-1.45,8.4,8.4,0,0,0,.376-2.993V7.1a2.733,2.733,0,0,0-.273-1.553,1.435,1.435,0,0,0-1.133-.43Zm13.566,5.547,2.842,4.238a11.715,11.715,0,0,0,1.753,2.222,2.452,2.452,0,0,0,1.45.513V18h-5.684v-.361a2.569,2.569,0,0,0,.84-.117.8.8,0,0,0,.337-.269.617.617,0,0,0,.132-.366,1.225,1.225,0,0,0-.088-.449,7.658,7.658,0,0,0-.537-.859l-2.246-3.4-2.773,3.555a5.357,5.357,0,0,0-.527.757.934.934,0,0,0-.088.4.63.63,0,0,0,.264.518,1.863,1.863,0,0,0,1.006.234V18h-4.7v-.361a2.872,2.872,0,0,0,.859-.205,4.979,4.979,0,0,0,1.152-.684,8.059,8.059,0,0,0,1.25-1.318l3.125-3.945-2.607-3.818a7.694,7.694,0,0,0-1.807-2.036,3.247,3.247,0,0,0-1.709-.513V4.758h6.123v.361a1.95,1.95,0,0,0-1.069.254.634.634,0,0,0-.288.5,2.206,2.206,0,0,0,.469,1.055l2.031,3.037,2.354-2.979a5.117,5.117,0,0,0,.5-.723.924.924,0,0,0,.093-.4.586.586,0,0,0-.117-.361.782.782,0,0,0-.371-.288,3.4,3.4,0,0,0-.928-.093V4.758h4.7v.361a2.772,2.772,0,0,0-.908.176,3.656,3.656,0,0,0-.967.605,10.918,10.918,0,0,0-1.24,1.406Zm12.951,6.973V18h-5.674v-.361h.469a1.414,1.414,0,0,0,1.191-.479,2.974,2.974,0,0,0,.234-1.5V7.1a4.385,4.385,0,0,0-.127-1.328.88.88,0,0,0-.4-.42,1.851,1.851,0,0,0-.9-.234h-.469V4.758h5.674v.361h-.479a1.4,1.4,0,0,0-1.182.479,2.87,2.87,0,0,0-.244,1.5v8.555a4.385,4.385,0,0,0,.127,1.328.874.874,0,0,0,.41.42,1.8,1.8,0,0,0,.889.234ZM183.686,5.48v5.234h2.91a2.372,2.372,0,0,0,1.514-.342,2.2,2.2,0,0,0,.566-1.582h.361V13.4h-.361a5.04,5.04,0,0,0-.273-1.24,1.222,1.222,0,0,0-.576-.537,2.942,2.942,0,0,0-1.23-.2h-2.91v4.365a4.055,4.055,0,0,0,.078,1.069.614.614,0,0,0,.273.3,1.661,1.661,0,0,0,.742.112h2.246a6.085,6.085,0,0,0,1.631-.156,2.432,2.432,0,0,0,.977-.615,7.515,7.515,0,0,0,1.24-1.826h.391L190.121,18H179.916v-.361h.469a1.857,1.857,0,0,0,.889-.225.822.822,0,0,0,.425-.469,4.6,4.6,0,0,0,.112-1.279v-8.6a2.848,2.848,0,0,0-.254-1.553,1.513,1.513,0,0,0-1.172-.391h-.469V4.758h10.205l.146,2.9h-.381a4.576,4.576,0,0,0-.454-1.436,1.559,1.559,0,0,0-.737-.6,4.423,4.423,0,0,0-1.377-.146Zm20.109-.723.146,3.105h-.371a3.75,3.75,0,0,0-.293-1.172,1.96,1.96,0,0,0-.806-.835,2.81,2.81,0,0,0-1.323-.269h-1.865V15.705a2.709,2.709,0,0,0,.264,1.523,1.466,1.466,0,0,0,1.143.41h.459V18h-5.615v-.361H196a1.345,1.345,0,0,0,1.191-.508,2.963,2.963,0,0,0,.215-1.426V5.588h-1.592a4.439,4.439,0,0,0-1.318.137,1.81,1.81,0,0,0-.869.713,2.886,2.886,0,0,0-.43,1.426h-.371l.156-3.105Zm8.1-.3a6.006,6.006,0,0,1,4.468,1.958,6.76,6.76,0,0,1,1.89,4.888,6.961,6.961,0,0,1-1.9,5.01,6.366,6.366,0,0,1-9.2.049,6.972,6.972,0,0,1-1.86-5.029,6.7,6.7,0,0,1,2.148-5.146A6.338,6.338,0,0,1,211.893,4.455Zm-.186.713a3.494,3.494,0,0,0-2.852,1.318,7.454,7.454,0,0,0-1.338,4.8,7.865,7.865,0,0,0,1.387,4.99,3.427,3.427,0,0,0,2.813,1.328,3.843,3.843,0,0,0,3.081-1.455,7.1,7.1,0,0,0,1.216-4.59A8.016,8.016,0,0,0,214.676,6.5,3.608,3.608,0,0,0,211.707,5.168Zm7.551-.41h3.594l8.1,9.932V7.053a2.628,2.628,0,0,0-.273-1.523,1.448,1.448,0,0,0-1.143-.41h-.459V4.758h4.609v.361h-.469a1.345,1.345,0,0,0-1.191.508,2.963,2.963,0,0,0-.215,1.426V18.215h-.352l-8.73-10.664v8.154a2.709,2.709,0,0,0,.264,1.523,1.466,1.466,0,0,0,1.143.41h.469V18H219.99v-.361h.459a1.357,1.357,0,0,0,1.2-.508,2.963,2.963,0,0,0,.215-1.426V6.5a6.035,6.035,0,0,0-.874-.889,3.209,3.209,0,0,0-.874-.4,3.113,3.113,0,0,0-.859-.088Zm27.482-.3.342,4.18h-.342A5.716,5.716,0,0,0,245.4,6.281a4.188,4.188,0,0,0-3.037-1.143,4.319,4.319,0,0,0-3.848,2,7.192,7.192,0,0,0-1.1,4.023,8.044,8.044,0,0,0,.732,3.457,5.141,5.141,0,0,0,1.919,2.29,4.606,4.606,0,0,0,2.437.728,5.382,5.382,0,0,0,1.416-.186,5.647,5.647,0,0,0,1.318-.547V13.078a3.54,3.54,0,0,0-.151-1.3,1.022,1.022,0,0,0-.469-.469,2.711,2.711,0,0,0-1.118-.161v-.371h5.127v.371h-.244a1.09,1.09,0,0,0-1.045.508,3.43,3.43,0,0,0-.2,1.426v4.053a9.922,9.922,0,0,1-2.217.889,9.7,9.7,0,0,1-2.432.283,7.06,7.06,0,0,1-5.83-2.461,6.573,6.573,0,0,1-1.494-4.258,7.119,7.119,0,0,1,.84-3.35,7.171,7.171,0,0,1,2.734-2.93,6.7,6.7,0,0,1,3.438-.85,6.771,6.771,0,0,1,1.313.117,12,12,0,0,1,1.675.518,2.7,2.7,0,0,0,.732.205.391.391,0,0,0,.317-.171,1.306,1.306,0,0,0,.161-.669Zm11.477,13.691a7.785,7.785,0,0,0,2.153,2.529A5.221,5.221,0,0,0,263,21.6v.313a10.707,10.707,0,0,1-2.881-.542,12.527,12.527,0,0,1-2.905-1.367,14.166,14.166,0,0,1-2.368-1.86,9.415,9.415,0,0,1-2.227-1.2,6.526,6.526,0,0,1-1.851-2.329,7.518,7.518,0,0,1-.659-3.267,6.76,6.76,0,0,1,1.924-4.932,6.282,6.282,0,0,1,4.658-1.963,6.044,6.044,0,0,1,4.5,1.968,6.861,6.861,0,0,1,1.9,4.966,7,7,0,0,1-1.353,4.268A6.656,6.656,0,0,1,258.217,18.146ZM256.576,5.207a3.578,3.578,0,0,0-2.861,1.27,7.342,7.342,0,0,0-1.367,4.873,7.769,7.769,0,0,0,1.387,4.951,3.464,3.464,0,0,0,2.842,1.338,3.674,3.674,0,0,0,2.959-1.338,7.139,7.139,0,0,0,1.318-4.668,9.8,9.8,0,0,0-.723-3.994A4.067,4.067,0,0,0,258.651,5.8,3.767,3.767,0,0,0,256.576,5.207Zm17.316-.088V4.758h4.688v.361h-.5a1.345,1.345,0,0,0-1.2.654,2.988,2.988,0,0,0-.205,1.406v5.371a9.492,9.492,0,0,1-.4,3.091,3.88,3.88,0,0,1-1.553,1.885,5.533,5.533,0,0,1-3.149.786,5.931,5.931,0,0,1-3.291-.752,4.072,4.072,0,0,1-1.592-2.021,11.22,11.22,0,0,1-.312-3.262V7.1a2.594,2.594,0,0,0-.337-1.6,1.386,1.386,0,0,0-1.089-.381h-.5V4.758h5.723v.361h-.508a1.313,1.313,0,0,0-1.172.518,2.891,2.891,0,0,0-.244,1.465v5.771a12.721,12.721,0,0,0,.142,1.768,3.762,3.762,0,0,0,.513,1.553,2.789,2.789,0,0,0,1.069.918,3.7,3.7,0,0,0,1.714.361,4.726,4.726,0,0,0,2.324-.566,3.035,3.035,0,0,0,1.4-1.45,8.4,8.4,0,0,0,.376-2.993V7.1a2.734,2.734,0,0,0-.273-1.553,1.435,1.435,0,0,0-1.133-.43Zm11.379,5.537,4.883,4.854a8.915,8.915,0,0,0,2.051,1.636,4.376,4.376,0,0,0,1.7.493V18h-6.3v-.361a1.36,1.36,0,0,0,.815-.19.537.537,0,0,0,.249-.425.926.926,0,0,0-.093-.42,3.721,3.721,0,0,0-.61-.693l-4.57-4.521v4.268a4.385,4.385,0,0,0,.127,1.328.874.874,0,0,0,.41.42,1.8,1.8,0,0,0,.889.234h.449V18h-5.645v-.361h.469a1.414,1.414,0,0,0,1.191-.479,2.974,2.974,0,0,0,.234-1.5V7.1a4.493,4.493,0,0,0-.127-1.338.892.892,0,0,0-.4-.41,1.851,1.851,0,0,0-.9-.234h-.469V4.758h5.645v.361h-.449a1.9,1.9,0,0,0-.889.225.847.847,0,0,0-.42.469A4.463,4.463,0,0,0,283.4,7.1v4.053q.2-.186,1.338-1.24a29.376,29.376,0,0,0,3.506-3.545,1.28,1.28,0,0,0,.264-.684.5.5,0,0,0-.205-.4,1.092,1.092,0,0,0-.693-.171h-.3V4.758h4.863v.361a2.894,2.894,0,0,0-.781.117,4.011,4.011,0,0,0-.859.415,8.415,8.415,0,0,0-1.25.991q-.215.2-1.982,2Zm18.508-5.537V4.758h4.688v.361h-.5a1.345,1.345,0,0,0-1.2.654,2.988,2.988,0,0,0-.205,1.406v5.371a9.492,9.492,0,0,1-.4,3.091,3.88,3.88,0,0,1-1.553,1.885,5.533,5.533,0,0,1-3.149.786,5.931,5.931,0,0,1-3.291-.752,4.072,4.072,0,0,1-1.592-2.021,11.22,11.22,0,0,1-.312-3.262V7.1a2.594,2.594,0,0,0-.337-1.6,1.386,1.386,0,0,0-1.089-.381h-.5V4.758h5.723v.361h-.508a1.313,1.313,0,0,0-1.172.518,2.891,2.891,0,0,0-.244,1.465v5.771a12.721,12.721,0,0,0,.142,1.768,3.762,3.762,0,0,0,.513,1.553,2.789,2.789,0,0,0,1.069.918,3.7,3.7,0,0,0,1.714.361,4.726,4.726,0,0,0,2.324-.566,3.035,3.035,0,0,0,1.4-1.45,8.4,8.4,0,0,0,.376-2.993V7.1a2.734,2.734,0,0,0-.273-1.553,1.435,1.435,0,0,0-1.133-.43Zm14.553,8.447h-5.127l-.9,2.09a3.309,3.309,0,0,0-.332,1.152.669.669,0,0,0,.288.532,2.517,2.517,0,0,0,1.245.3V18h-4.17v-.361a2.247,2.247,0,0,0,1.074-.381,5.982,5.982,0,0,0,1.1-1.9l4.658-10.9h.342l4.609,11.016a5.021,5.021,0,0,0,1.011,1.724,2.06,2.06,0,0,0,1.265.444V18h-5.225v-.361a1.959,1.959,0,0,0,1.069-.264.68.68,0,0,0,.278-.547,4.049,4.049,0,0,0-.391-1.357Zm-.273-.723-2.246-5.352-2.3,5.352ZM330.3,17.639V18h-5.674v-.361h.469a1.414,1.414,0,0,0,1.191-.479,2.974,2.974,0,0,0,.234-1.5V7.1a4.385,4.385,0,0,0-.127-1.328.88.88,0,0,0-.4-.42,1.851,1.851,0,0,0-.9-.234h-.469V4.758H330.3v.361h-.479a1.4,1.4,0,0,0-1.182.479,2.87,2.87,0,0,0-.244,1.5v8.555a4.385,4.385,0,0,0,.127,1.328.874.874,0,0,0,.41.42,1.8,1.8,0,0,0,.889.234Zm12.453-3.3.322.068L341.939,18H331.686v-.361h.5a1.332,1.332,0,0,0,1.2-.547,3.152,3.152,0,0,0,.205-1.445V7.1a2.734,2.734,0,0,0-.273-1.553,1.435,1.435,0,0,0-1.133-.43h-.5V4.758h6v.361a3.659,3.659,0,0,0-1.479.2,1.194,1.194,0,0,0-.581.518,4.261,4.261,0,0,0-.156,1.494v8.32a2.707,2.707,0,0,0,.156,1.113.7.7,0,0,0,.361.3,6.339,6.339,0,0,0,1.523.1h.967a7,7,0,0,0,2.139-.225,2.785,2.785,0,0,0,1.123-.8A6.523,6.523,0,0,0,342.75,14.338Zm7.424,3.3V18H344.5v-.361h.469a1.414,1.414,0,0,0,1.191-.479,2.974,2.974,0,0,0,.234-1.5V7.1a4.385,4.385,0,0,0-.127-1.328.88.88,0,0,0-.4-.42,1.851,1.851,0,0,0-.9-.234H344.5V4.758h5.674v.361H349.7a1.4,1.4,0,0,0-1.182.479,2.87,2.87,0,0,0-.244,1.5v8.555a4.385,4.385,0,0,0,.127,1.328.874.874,0,0,0,.41.42,1.8,1.8,0,0,0,.889.234Zm10.139-4.072h-5.127l-.9,2.09a3.309,3.309,0,0,0-.332,1.152.669.669,0,0,0,.288.532,2.517,2.517,0,0,0,1.245.3V18h-4.17v-.361a2.247,2.247,0,0,0,1.074-.381,5.982,5.982,0,0,0,1.1-1.9l4.658-10.9h.342l4.609,11.016a5.021,5.021,0,0,0,1.011,1.724,2.06,2.06,0,0,0,1.265.444V18h-5.225v-.361a1.959,1.959,0,0,0,1.069-.264.68.68,0,0,0,.278-.547,4.049,4.049,0,0,0-.391-1.357Zm-.273-.723-2.246-5.352-2.3,5.352Zm5.8-8.086h3.594l8.1,9.932V7.053a2.628,2.628,0,0,0-.273-1.523,1.448,1.448,0,0,0-1.143-.41h-.459V4.758h4.609v.361H379.8a1.345,1.345,0,0,0-1.191.508,2.963,2.963,0,0,0-.215,1.426V18.215h-.352l-8.73-10.664v8.154a2.709,2.709,0,0,0,.264,1.523,1.466,1.466,0,0,0,1.143.41h.469V18h-4.609v-.361h.459a1.357,1.357,0,0,0,1.2-.508,2.963,2.963,0,0,0,.215-1.426V6.5a6.035,6.035,0,0,0-.874-.889,3.209,3.209,0,0,0-.874-.4,3.113,3.113,0,0,0-.859-.088Zm27.482-.3.342,4.18h-.342a5.716,5.716,0,0,0-1.338-2.354,4.188,4.188,0,0,0-3.037-1.143,4.319,4.319,0,0,0-3.848,2,7.192,7.192,0,0,0-1.1,4.023,8.044,8.044,0,0,0,.732,3.457,5.141,5.141,0,0,0,1.919,2.29,4.606,4.606,0,0,0,2.437.728,5.382,5.382,0,0,0,1.416-.186,5.648,5.648,0,0,0,1.318-.547V13.078a3.539,3.539,0,0,0-.151-1.3,1.022,1.022,0,0,0-.469-.469,2.711,2.711,0,0,0-1.118-.161v-.371h5.127v.371h-.244a1.09,1.09,0,0,0-1.045.508,3.43,3.43,0,0,0-.2,1.426v4.053a9.922,9.922,0,0,1-2.217.889,9.7,9.7,0,0,1-2.432.283,7.06,7.06,0,0,1-5.83-2.461,6.573,6.573,0,0,1-1.494-4.258,7.118,7.118,0,0,1,.84-3.35,7.171,7.171,0,0,1,2.734-2.93,6.7,6.7,0,0,1,3.438-.85,6.771,6.771,0,0,1,1.313.117,12,12,0,0,1,1.675.518,2.7,2.7,0,0,0,.732.205.391.391,0,0,0,.317-.171,1.306,1.306,0,0,0,.161-.669Zm12.209.664V4.758h4.688v.361h-.5a1.345,1.345,0,0,0-1.2.654,2.988,2.988,0,0,0-.205,1.406v5.371a9.492,9.492,0,0,1-.4,3.091,3.88,3.88,0,0,1-1.553,1.885,5.533,5.533,0,0,1-3.149.786,5.931,5.931,0,0,1-3.291-.752,4.072,4.072,0,0,1-1.592-2.021,11.22,11.22,0,0,1-.312-3.262V7.1a2.594,2.594,0,0,0-.337-1.6,1.386,1.386,0,0,0-1.089-.381h-.5V4.758h5.723v.361h-.508a1.313,1.313,0,0,0-1.172.518A2.891,2.891,0,0,0,399.9,7.1v5.771a12.721,12.721,0,0,0,.142,1.768,3.762,3.762,0,0,0,.513,1.553,2.789,2.789,0,0,0,1.069.918,3.7,3.7,0,0,0,1.714.361,4.726,4.726,0,0,0,2.324-.566,3.035,3.035,0,0,0,1.4-1.45,8.4,8.4,0,0,0,.376-2.993V7.1a2.734,2.734,0,0,0-.273-1.553,1.435,1.435,0,0,0-1.133-.43Zm14.553,8.447h-5.127l-.9,2.09a3.309,3.309,0,0,0-.332,1.152.669.669,0,0,0,.288.532,2.517,2.517,0,0,0,1.245.3V18h-4.17v-.361a2.247,2.247,0,0,0,1.074-.381,5.982,5.982,0,0,0,1.1-1.9l4.658-10.9h.342l4.609,11.016a5.021,5.021,0,0,0,1.011,1.724,2.06,2.06,0,0,0,1.265.444V18H419.93v-.361A1.959,1.959,0,0,0,421,17.375a.68.68,0,0,0,.278-.547,4.049,4.049,0,0,0-.391-1.357Zm-.273-.723-2.246-5.352-2.3,5.352Zm5.8-8.086h3.594l8.1,9.932V7.053a2.628,2.628,0,0,0-.273-1.523,1.448,1.448,0,0,0-1.143-.41h-.459V4.758h4.609v.361h-.469a1.345,1.345,0,0,0-1.191.508,2.963,2.963,0,0,0-.215,1.426V18.215h-.352l-8.73-10.664v8.154a2.709,2.709,0,0,0,.264,1.523,1.466,1.466,0,0,0,1.143.41h.469V18h-4.609v-.361h.459a1.357,1.357,0,0,0,1.2-.508,2.963,2.963,0,0,0,.215-1.426V6.5a6.035,6.035,0,0,0-.874-.889,3.209,3.209,0,0,0-.874-.4,3.113,3.113,0,0,0-.859-.088Zm26.672,9.58.322.068L451.477,18H441.223v-.361h.5a1.332,1.332,0,0,0,1.2-.547,3.152,3.152,0,0,0,.205-1.445V7.1a2.734,2.734,0,0,0-.273-1.553,1.435,1.435,0,0,0-1.133-.43h-.5V4.758h6v.361a3.659,3.659,0,0,0-1.479.2,1.194,1.194,0,0,0-.581.518A4.261,4.261,0,0,0,445,7.326v8.32a2.707,2.707,0,0,0,.156,1.113.7.7,0,0,0,.361.3,6.339,6.339,0,0,0,1.523.1h.967a7,7,0,0,0,2.139-.225,2.785,2.785,0,0,0,1.123-.8A6.523,6.523,0,0,0,452.287,14.338Zm7.424,3.3V18h-5.674v-.361h.469a1.414,1.414,0,0,0,1.191-.479,2.974,2.974,0,0,0,.234-1.5V7.1a4.385,4.385,0,0,0-.127-1.328.88.88,0,0,0-.4-.42,1.851,1.851,0,0,0-.9-.234h-.469V4.758h5.674v.361h-.479a1.4,1.4,0,0,0-1.182.479,2.87,2.87,0,0,0-.244,1.5v8.555a4.385,4.385,0,0,0,.127,1.328.874.874,0,0,0,.41.42,1.8,1.8,0,0,0,.889.234Zm5.09-5.84v3.857a2.7,2.7,0,0,0,.273,1.553,1.4,1.4,0,0,0,1.123.43h.508V18h-5.674v-.361h.5a1.332,1.332,0,0,0,1.2-.547,3.221,3.221,0,0,0,.2-1.436V7.1a2.788,2.788,0,0,0-.264-1.553,1.435,1.435,0,0,0-1.133-.43h-.5V4.758h4.854a8.6,8.6,0,0,1,2.8.366,3.858,3.858,0,0,1,1.729,1.235,3.175,3.175,0,0,1,.7,2.061,3.472,3.472,0,0,1-1.069,2.637,4.216,4.216,0,0,1-3.022,1.016A8.527,8.527,0,0,1,465.992,12Q465.436,11.936,464.8,11.8Zm0-.557q.518.1.918.146a5.78,5.78,0,0,0,.684.049,2.323,2.323,0,0,0,1.753-.786,2.856,2.856,0,0,0,.737-2.036,3.662,3.662,0,0,0-.352-1.6,2.427,2.427,0,0,0-1-1.1,2.913,2.913,0,0,0-1.465-.366,5.78,5.78,0,0,0-1.279.186Zm13.693,6.4V18H472.82v-.361h.469a1.414,1.414,0,0,0,1.191-.479,2.974,2.974,0,0,0,.234-1.5V7.1a4.385,4.385,0,0,0-.127-1.328.88.88,0,0,0-.4-.42,1.851,1.851,0,0,0-.9-.234h-.469V4.758h5.674v.361h-.479a1.4,1.4,0,0,0-1.182.479,2.87,2.87,0,0,0-.244,1.5v8.555a4.385,4.385,0,0,0,.127,1.328.874.874,0,0,0,.41.42,1.8,1.8,0,0,0,.889.234Zm.725-12.881h3.594l8.1,9.932V7.053a2.628,2.628,0,0,0-.273-1.523,1.448,1.448,0,0,0-1.143-.41h-.459V4.758h4.609v.361h-.469a1.345,1.345,0,0,0-1.191.508,2.963,2.963,0,0,0-.215,1.426V18.215h-.352l-8.73-10.664v8.154a2.709,2.709,0,0,0,.264,1.523,1.466,1.466,0,0,0,1.143.41h.469V18h-4.609v-.361h.459a1.357,1.357,0,0,0,1.2-.508,2.963,2.963,0,0,0,.215-1.426V6.5a6.035,6.035,0,0,0-.874-.889,3.209,3.209,0,0,0-.874-.4,3.113,3.113,0,0,0-.859-.088Zm27.482-.3.342,4.18H506.7a5.716,5.716,0,0,0-1.338-2.354,4.188,4.188,0,0,0-3.037-1.143,4.319,4.319,0,0,0-3.848,2,7.192,7.192,0,0,0-1.1,4.023,8.044,8.044,0,0,0,.732,3.457,5.141,5.141,0,0,0,1.919,2.29,4.606,4.606,0,0,0,2.437.728,5.382,5.382,0,0,0,1.416-.186,5.648,5.648,0,0,0,1.318-.547V13.078a3.539,3.539,0,0,0-.151-1.3,1.022,1.022,0,0,0-.469-.469,2.711,2.711,0,0,0-1.118-.161v-.371h5.127v.371h-.244a1.09,1.09,0,0,0-1.045.508,3.43,3.43,0,0,0-.2,1.426v4.053a9.922,9.922,0,0,1-2.217.889,9.7,9.7,0,0,1-2.432.283,7.06,7.06,0,0,1-5.83-2.461,6.573,6.573,0,0,1-1.494-4.258,7.118,7.118,0,0,1,.84-3.35A7.171,7.171,0,0,1,498.7,5.3a6.7,6.7,0,0,1,3.438-.85,6.771,6.771,0,0,1,1.313.117,12,12,0,0,1,1.675.518,2.7,2.7,0,0,0,.732.205.391.391,0,0,0,.317-.171,1.306,1.306,0,0,0,.161-.669Zm14.24.3.146,3.105h-.371a3.749,3.749,0,0,0-.293-1.172,1.961,1.961,0,0,0-.806-.835,2.81,2.81,0,0,0-1.323-.269H516.43V15.705a2.709,2.709,0,0,0,.264,1.523,1.466,1.466,0,0,0,1.143.41h.459V18H512.68v-.361h.469a1.345,1.345,0,0,0,1.191-.508,2.963,2.963,0,0,0,.215-1.426V5.588h-1.592a4.439,4.439,0,0,0-1.318.137,1.81,1.81,0,0,0-.869.713,2.886,2.886,0,0,0-.43,1.426h-.371l.156-3.105Zm8.693,8.809h-5.127l-.9,2.09a3.308,3.308,0,0,0-.332,1.152.669.669,0,0,0,.288.532,2.517,2.517,0,0,0,1.245.3V18h-4.17v-.361a2.247,2.247,0,0,0,1.074-.381,5.982,5.982,0,0,0,1.1-1.9l4.658-10.9h.342l4.609,11.016a5.021,5.021,0,0,0,1.011,1.724,2.06,2.06,0,0,0,1.265.444V18h-5.225v-.361a1.959,1.959,0,0,0,1.069-.264.68.68,0,0,0,.278-.547,4.048,4.048,0,0,0-.391-1.357Zm-.273-.723-2.246-5.352-2.3,5.352ZM541.6,17.639V18h-5.674v-.361h.469a1.414,1.414,0,0,0,1.191-.479,2.974,2.974,0,0,0,.234-1.5V7.1a4.384,4.384,0,0,0-.127-1.328.88.88,0,0,0-.4-.42,1.851,1.851,0,0,0-.9-.234h-.469V4.758H541.6v.361h-.479a1.4,1.4,0,0,0-1.182.479,2.87,2.87,0,0,0-.244,1.5v8.555a4.384,4.384,0,0,0,.127,1.328.875.875,0,0,0,.41.42,1.8,1.8,0,0,0,.889.234Z" transform="translate(2886 -178)" fill="#fff"/>
      </g>
      <g id="图层_2" data-name="图层 2" transform="translate(2765.03 -221.985)">
        <g id="图层_1" data-name="图层 1" transform="translate(-0.03 -0.015)">
          <g id="Group_124" data-name="Group 124" transform="translate(0 0)">
            <path id="Path_111" data-name="Path 111" d="M193.509,12.784a.952.952,0,0,0-.131-.095,1.223,1.223,0,0,0-.141-.073,1.281,1.281,0,0,0-.14-.049.814.814,0,0,0-.147-.024.744.744,0,0,0-.144,0,1.152,1.152,0,0,0-.144.018,1.254,1.254,0,0,0-.141.046.893.893,0,0,0-.131.067L184,17.817V59.636l8.4,5.146a.891.891,0,0,0,.131.067.819.819,0,0,0,.14.043.774.774,0,0,0,.144.021.742.742,0,0,0,.144,0,.822.822,0,0,0,.147-.028,1.188,1.188,0,0,0,.281-.119.947.947,0,0,0,.131-.095l6.592-5.384v-41.1Z" transform="translate(-127.729 -8.704)" fill="#465bff"/>
            <path id="Path_112" data-name="Path 112" d="M138.923,12.694a.893.893,0,0,0-.131-.067,1.257,1.257,0,0,0-.141-.046,1.154,1.154,0,0,0-.144-.018.745.745,0,0,0-.144,0,.814.814,0,0,0-.147.024,1.276,1.276,0,0,0-.141.049,1.22,1.22,0,0,0-.14.073.951.951,0,0,0-.131.095L131.21,18.2V59.3l6.595,5.375a.952.952,0,0,0,.131.095.861.861,0,0,0,.14.07,1.312,1.312,0,0,0,.141.052,1.226,1.226,0,0,0,.147.024.743.743,0,0,0,.144,0,.776.776,0,0,0,.144-.021.82.82,0,0,0,.141-.043.891.891,0,0,0,.131-.067l8.412-5.137V17.83Z" transform="translate(-91.081 -8.718)" fill="#38d230"/>
            <path id="Path_113" data-name="Path 113" d="M240.1,14.215a2.108,2.108,0,0,0-.232-.538,2.187,2.187,0,0,0-.364-.456,2.121,2.121,0,0,0-.486-.345L214.6.185a1.753,1.753,0,0,0-.235-.1,1.73,1.73,0,0,0-.247-.064,2.243,2.243,0,0,0-.25-.031,1.8,1.8,0,0,0-.257,0,2.439,2.439,0,0,0-.254.043,2.383,2.383,0,0,0-.25.079,1.952,1.952,0,0,0-.244.113,2.137,2.137,0,0,0-.235.147L192.98,14.609,184,9.1V50.911l8.989-5.5,19.647,14.225a2.136,2.136,0,0,0,.235.147,1.952,1.952,0,0,0,.244.113,2.383,2.383,0,0,0,.25.079,2.441,2.441,0,0,0,.254.043,1.8,1.8,0,0,0,.257,0,2.244,2.244,0,0,0,.25-.031,1.732,1.732,0,0,0,.247-.064,1.753,1.753,0,0,0,.235-.1l24.418-12.691a2.217,2.217,0,0,0,.486-.345,2.251,2.251,0,0,0,.363-.452,2.142,2.142,0,0,0,.232-.541,2.264,2.264,0,0,0,.079-.611V14.814a2.3,2.3,0,0,0-.089-.6Z" transform="translate(-127.688 0.015)" fill="#38d230"/>
            <path id="Path_114" data-name="Path 114" d="M47.181,14.609,27.531.381A1.851,1.851,0,0,0,27.3.234a1.954,1.954,0,0,0-.244-.113A2.385,2.385,0,0,0,26.8.042a2.442,2.442,0,0,0-.25-.052,1.8,1.8,0,0,0-.257,0,2.243,2.243,0,0,0-.25.031A1.63,1.63,0,0,0,25.8.084a1.8,1.8,0,0,0-.238.1L1.143,12.876a2.2,2.2,0,0,0-.483.345,2.106,2.106,0,0,0-.376.456,2.141,2.141,0,0,0-.232.538,2.182,2.182,0,0,0-.082.611V45.212A2.165,2.165,0,0,0,.651,46.8a2.2,2.2,0,0,0,.483.345L25.548,59.838a1.8,1.8,0,0,0,.238.1,1.629,1.629,0,0,0,.247.064,1.7,1.7,0,0,0,.25.028,1.439,1.439,0,0,0,.257,0,2.441,2.441,0,0,0,.254-.043,2.382,2.382,0,0,0,.25-.079,1.953,1.953,0,0,0,.244-.113,1.85,1.85,0,0,0,.232-.147l19.65-14.225,8.993,5.5V9.1Z" transform="translate(0.03 0.015)" fill="#465bff"/>
            <path id="Path_115" data-name="Path 115" d="M150.57,38.663a1.2,1.2,0,0,0-.064-.211.954.954,0,0,0-.1-.18.881.881,0,0,0-.134-.147l-9.759-7.958h0l-7.12,5.144-8.98-5.511h0l-8.993,5.505-7.132-5.138h0l-9.756,7.952a.783.783,0,0,0-.137.147.943.943,0,0,0-.1.18.992.992,0,0,0-.064.211,1.117,1.117,0,0,0-.024.226V62.534a1.117,1.117,0,0,0,.024.226.918.918,0,0,0,.064.208.884.884,0,0,0,.1.183.684.684,0,0,0,.137.144l9.756,7.976h0l7.123-5.156,8.993,5.505h0l8.989-5.505,7.12,5.156h0l9.774-7.976a.753.753,0,0,0,.134-.144.894.894,0,0,0,.1-.184,1.1,1.1,0,0,0,.064-.208,1.118,1.118,0,0,0,.021-.226V38.89A1.113,1.113,0,0,0,150.57,38.663Z" transform="translate(-68.146 -20.693)" fill="#19d3c5"/>
          </g>
          <path id="Path_116" data-name="Path 116" d="M180.607,14.222a2.106,2.106,0,0,0-.232-.538,2.188,2.188,0,0,0-.364-.456,2.122,2.122,0,0,0-.486-.345L155.077.192a1.761,1.761,0,0,0-.236-.1,1.631,1.631,0,0,0-.248-.064A1.7,1.7,0,0,0,154.343,0a1.8,1.8,0,0,0-.257,0,2.224,2.224,0,0,0-.5.122,2.521,2.521,0,0,0-.245.113,2.143,2.143,0,0,0-.236.147l-19.67,14.234h0L116.017,3.971a.761.761,0,0,0-.132-.067.838.838,0,0,0-.141-.046,1.157,1.157,0,0,0-.144-.018.786.786,0,0,0-.147,0,.832.832,0,0,0-.144.024,1.327,1.327,0,0,0-.144.049l-.138.073a.95.95,0,0,0-.131.095L98.527,17.423a.783.783,0,0,0-.138.147.941.941,0,0,0-.1.18.991.991,0,0,0-.064.211,1.115,1.115,0,0,0-.024.226V41.829a1.115,1.115,0,0,0,.024.226.917.917,0,0,0,.064.208.884.884,0,0,0,.1.183.685.685,0,0,0,.138.144L114.9,55.944a.95.95,0,0,0,.131.095.975.975,0,0,0,.138.07.886.886,0,0,0,.144.049l.144.028a1.18,1.18,0,0,0,.147,0,.777.777,0,0,0,.144-.021.824.824,0,0,0,.141-.043.763.763,0,0,0,.132-.067L133.431,45.4,153.1,59.625a2.139,2.139,0,0,0,.236.147,1.6,1.6,0,0,0,.245.113,1.494,1.494,0,0,0,.251.079,1.469,1.469,0,0,0,.254.043,1.806,1.806,0,0,0,.257,0,1.7,1.7,0,0,0,.251-.028,1.633,1.633,0,0,0,.248-.064,1.781,1.781,0,0,0,.235-.1l24.447-12.691a2.22,2.22,0,0,0,.486-.345,2.252,2.252,0,0,0,.364-.452,2.14,2.14,0,0,0,.232-.541,2.262,2.262,0,0,0,.08-.611V14.821a2.3,2.3,0,0,0-.079-.6ZM115.467,52.15,100.845,40.459v-20.9L115.467,7.872,131.742,18.1c.064.04.128.079.2.113V41.8c-.067.034-.132.073-.2.113Zm60.617-8.475L154.1,55.452,135.143,42.07c-.086-.061-.174-.116-.263-.168V18.126a2.749,2.749,0,0,0,.263-.171L154.086,4.582l21.985,11.773Z" transform="translate(-68.195 0.008)" fill="#fff"/>
          <path id="Path_117" data-name="Path 117" d="M82.444,17.96a1.2,1.2,0,0,0-.064-.211.956.956,0,0,0-.1-.18.881.881,0,0,0-.135-.147L65.77,4.068a.952.952,0,0,0-.131-.095A1.224,1.224,0,0,0,65.5,3.9a1.282,1.282,0,0,0-.141-.049,1.224,1.224,0,0,0-.147-.024.759.759,0,0,0-.144,0,1.086,1.086,0,0,0-.144.018,1.257,1.257,0,0,0-.141.046.894.894,0,0,0-.132.067L47.238,14.609h0L27.564.381a1.854,1.854,0,0,0-.232-.147,2.524,2.524,0,0,0-.245-.113,1.835,1.835,0,0,0-.251-.076,1.888,1.888,0,0,0-.251-.055,1.75,1.75,0,0,0-.254,0,1.7,1.7,0,0,0-.251.028,1.633,1.633,0,0,0-.248.064,1.8,1.8,0,0,0-.239.1L1.144,12.876a2.2,2.2,0,0,0-.483.345,2.107,2.107,0,0,0-.376.456,2.14,2.14,0,0,0-.232.538,2.179,2.179,0,0,0-.083.611V45.212A2.164,2.164,0,0,0,.652,46.8a2.2,2.2,0,0,0,.483.345L25.579,59.838a1.818,1.818,0,0,0,.239.1,1.632,1.632,0,0,0,.248.064,1.7,1.7,0,0,0,.251.028,1.746,1.746,0,0,0,.254,0,1.835,1.835,0,0,0,.508-.122,1.958,1.958,0,0,0,.245-.113,1.854,1.854,0,0,0,.232-.147L47.228,45.426,64.642,56.08a.9.9,0,0,0,.132.067.823.823,0,0,0,.141.043.74.74,0,0,0,.144.021,1.139,1.139,0,0,0,.144,0,1.226,1.226,0,0,0,.147-.028,1.19,1.19,0,0,0,.281-.119,1.3,1.3,0,0,0,.132-.095L82.132,42.613a.755.755,0,0,0,.135-.144.893.893,0,0,0,.1-.183,1.1,1.1,0,0,0,.064-.208,1.113,1.113,0,0,0,.021-.226V18.186A1.113,1.113,0,0,0,82.444,17.96ZM26.585,55.445,4.6,43.668V16.343L26.585,4.575l18.93,13.372c.08.058.159.107.242.156V41.91c-.083.046-.162.1-.242.153Zm53.256-14.98L65.211,52.143,48.938,41.916c-.073-.046-.147-.086-.22-.125V18.223c.073-.04.147-.079.22-.125L65.211,7.871,79.835,19.556Z" transform="translate(0.03 0.015)" fill="#fff"/>
        </g>
      </g>
    </g>
  </g>
</svg>
