<svg xmlns="http://www.w3.org/2000/svg" width="625.96" height="38.72" viewBox="0 0 625.96 38.72">
  <path id="Path_338" data-name="Path 338" d="M-283.24,6.32l-1.4-2.16-1.4,2.16h-9.12l5.96-9.16-4.16-6.32V-20.28h7.96v9.48l.68,1.04.68-1.04V-24.56h-1.52l-.84,3.48h-7.92l2.56-10.72h7.92l-1.12,4.72h10.36v2.52h-1.48v15.4l-4.16,6.48,5.72,9ZM-294.2,2.76l-19.12,2.08V2.12l.68-.08V-20.12h6.36V1.36l1.08-.12V-26.28h-8.12v-2.68h19.12v2.68h-2.76v11.64h2.24v2.68h-2.24V.36l2.76-.28Zm47.48-14.08-1.8,13.76,6.8-.68-1.24-10.28h8.2l1.84,15.12h-8.2l-.24-1.96-17.36,1.72-.4-2.88,1.56-.16,1.96-14.64h-3.48v-2.72h8.12v-8.64H-258v-2.68h7.04v-6.4H-241v6.4h7v2.68h-7v8.64h8.08v2.72Zm-14.4-19.2.56,9.2h-8.72l-.56-9.2Zm0,11.32.56,9.28h-8.72l-.56-9.28ZM-269.4-8h8.84l-1.36,14.36h-8.76Zm60.24-23.72V3.76h-1.72V-31.72h-8.56V3.76h-9.08V6.44h37.28V3.76h-9.36V-31.72Zm-20.28,5.8,2,22.52h7.32l-2.24-22.52Zm31.92,0L-199.8-3.4h7.4l2-22.52Zm24.92,7.36-3.24-2.32-.44,1.16H-186l4.48-12.12h9.96l-1,2.56h19.4a2.381,2.381,0,0,1,1.74.74,2.427,2.427,0,0,1,.74,1.78v5.48l-7.72,3.76,9.56,6.76h-13.04l-4.16-3-6.16,3h-14.72Zm7.2-3.92,4.6-2.52v-.76a.742.742,0,0,0-.84-.84H-173.6l-.36.96h4.08Zm12.2,14.64a2.381,2.381,0,0,1,1.74.74,2.427,2.427,0,0,1,.74,1.78V6.44h-12.36V3.56h2.36V-4.28a.742.742,0,0,0-.84-.84h-8.96l-3.44,11.56h-10.4l3.76-11.56h-4.2V-7.84h5.08l.76-2.32H-169l-.68,2.32Zm21.56-12.48h-2.12V6.36h-9.28V-20.32h-2.16v-2.72h2.16v-8.6h9.28v8.6h2.12Zm18.44-5.8a2.381,2.381,0,0,1,1.74.74,2.427,2.427,0,0,1,.74,1.78V6.44h-9.56V3.56h1.72V-22.52a.742.742,0,0,0-.84-.84h-.04l-2.04,29.8h-8.08l1.88-29.8h-3.08v-2.76h3.24l.36-5.52h8.28l-.36,5.52Zm-16.24,24h-3.4l.88-16.8h3.48Zm22.64-16.8v16.8h-3.04v-16.8ZM-65.96,6.4H-76.84V3.44h2.88V-27.28q0-.8-.84-.8H-92.2V6.4h-8.84V-30.8h32.6a2.394,2.394,0,0,1,1.76.72,2.394,2.394,0,0,1,.72,1.76ZM-75.4-21.88H-91.2V-24.6h15.8Zm-.24,21.6H-90.56V-18.04h13.28a1.58,1.58,0,0,1,1.16.48,1.58,1.58,0,0,1,.48,1.16ZM-84.4-15.32V-2.96h1.84V-14.52a.707.707,0,0,0-.8-.8ZM-23.88-27.8h-26q-.84,0-.84.8V3.44h26.84V6.08H-59.84V-28a2.362,2.362,0,0,1,.74-1.76,2.461,2.461,0,0,1,1.78-.72h33.44Zm-1.36,2.72L-32.52-11.8l6.96,13h-9.28L-37.2-3.24l-2.56,4.68h-9.32l7.32-13.24L-49-25.32h9.24l2.68,5,2.64-4.76ZM19.12-9.24H14.08l4.04,15.6H9.16l-3-12.4L2.96,6.36H-5.96l4.52-15.6H-5.16v-2.68H-.2v-11.8H-4.28v-2.76H-.2V-31.8H8.6v5.32h7.08a2.381,2.381,0,0,1,1.74.74,2.427,2.427,0,0,1,.74,1.78v12.04h.96ZM-5.08-.92-18.64,2.04V-.6l2-.44V-17.56h-2v-2.68h2v-9.52h9.56v9.52h2v2.68h-2v14.4l2-.44Zm13.68-11h1.68V-22.88a.742.742,0,0,0-.84-.84H8.6ZM45.48-25.2H43.96v-2.64h1.8l.44-3.96h6.52l-.44,3.96h8.4v2.64H52l-1.04,9.8h1.12v-6.8h6v6.8h2.6v2.64h-2.6v5.2h2.6V-4.8h-2.6V2H50.24V-4.8H44.6V-7.56h5.64v-5.2H44.08Zm-15.6,5.68H23.52l1.76-11.64h6.28L31-27.28h3.68v2.64H30.6Zm6.28-5.04-.32-6.52H42.8l.28,6.52ZM60.72,3.36V6.28H36.16V-22.64H43.2v26ZM23.84-17.2H35.12v2.68H33.24v5.56h1.88V-6.2H33.24V1.24L35,.72v2.8L25,6.36l-.4-2.6,1.44-.44V-6.2h-2.2V-8.96h2.2v-5.56h-2.2ZM77-23.76H65.28v-2.72H79.04v-5.28H89.92v5.28h13.04v2.72h-11L102.8-9.16H92.48L84.52-20.44l-2.56,3.52h4.2L88.2-9.16H80.12l-.92-4-2.88,4H65.84ZM83.2,3.32H94.08V6.24H74.4V-7.92h8.8Zm.84-10h7.12L92.2,1.64H84.88ZM66.4-6.6h7.72L72.92,4.52H65.2ZM103,4.52H95.28L94.08-6.6h7.72Zm7.76-22.8-3,.48v-2.68l3-.48v-5.4h-3V-29h3v-2.72h8.6V-29h2.28v2.64h-2.28v3.96l2.28-.36v2.72l-2.28.36v8.28H109.08v-2.92h1.68Zm34.4,3.92v2.96h-9.84V-25.56q0-.8-.84-.8h-.76l-.8,5.68,1.96.28v2.64l-2.32-.32-.92,6.68h-8.68l1.16-7.8-1.48-.2v-2.72l1.88.28.68-4.52h-2.56V-29h2.96l.4-2.72h8.48l-.4,2.72h7.32a2.394,2.394,0,0,1,1.76.72,2.394,2.394,0,0,1,.72,1.76v12.16Zm-3.76,6.2a2.394,2.394,0,0,1,1.76.72,2.394,2.394,0,0,1,.72,1.76V6.36H132.12V3.44h2.08V-4.6a.742.742,0,0,0-.84-.84H122.52l-4.16,11.8h-9.92l4.28-11.8H107.6V-8.16h6.08l.96-2.64h9.76l-.92,2.64Zm18.2-16.52a.742.742,0,0,0-.84.84V-6.4h-7.68V-24.84a2.427,2.427,0,0,1,.74-1.78,2.427,2.427,0,0,1,1.78-.74h18.48l-1.04-4.32h8.16l1.04,4.32h5.72v2.68h-5.08l1.64,6.8,3.44-1.72v3.08l-2.8,1.4,2.08,8.72h-8L176-11.52l-2.84,1.44v-3.08l2.16-1.08-2.56-10.44Zm21.16-3.52-.64-3.48h5.12l.64,3.48Zm-8.84,8.24H159.96v-2.68h11.96Zm-12.28,1.92H169.8a2.381,2.381,0,0,1,1.74.74,2.427,2.427,0,0,1,.74,1.78v8.36H159.64Zm5.68,8.28h1.24V-14.6a.742.742,0,0,0-.84-.84h-.4Zm2.08,13.2h10.64V6.28H159V-5.56h8.4Zm2.12-1.52-.92-6.84h6.68l.92,6.84Zm-19-6.76h7.68L157,5.32h-7.68ZM186.96,5.32h-7.68l-1.2-10.16h7.68ZM209.8-10.64l2.12,16.52h-7.08L203.8-3.4l-1.56,9.28H193l3.4-19.28h-4.48v-2.76h4.96l1.8-10.32h-.92l-1.12,5.44H191.2l1.84-11.08h5.92l-.6,2.88h12.2v2.76h-2.84l-1.76,10.32h4.68v2.76h-5.12l-.48,2.76Zm16.24-17.04a2.381,2.381,0,0,1,1.74.74,2.427,2.427,0,0,1,.74,1.78V3.8H212.08V-27.68Zm-4.48,3.44a.742.742,0,0,0-.84-.84h-1.28V1.12h2.12Zm25.6,15.4H233.4v-2.68h13.76V-28.28h-12.4V-31h34.96v2.72H257.28v16.76h13.8v2.68h-13.8V6.36H247.16Zm-1.4-5.32h-8.68L235.6-25.84h8.44Zm13.2,0,1.68-11.68h8.48l-1.48,11.68Zm42.84-3L276.08-14.6l-.32-2.96,1.4-.12,6.76-14.12H294l-5.76,13.12,12.84-1.12-2.36-8.48h10l3.92,14.04h-10Zm6.64,4.44a2.394,2.394,0,0,1,1.76.72,2.394,2.394,0,0,1,.72,1.76V6.44H278.08V-12.72Zm-7.52,3.48q0-.8-.84-.8H288.12V3.8h12.8Z" transform="translate(313.32 32.12)" fill="#fff"/>
</svg>
