<svg xmlns="http://www.w3.org/2000/svg" width="24" height="24" viewBox="0 0 24 24">
  <path id="Reset_hover" d="M21.073,0H2.927A3.014,3.014,0,0,0,0,3.077V20.923A3.014,3.014,0,0,0,2.927,24H21.073A3.014,3.014,0,0,0,24,20.923V3.077A3.014,3.014,0,0,0,21.073,0ZM18.385,16.3l-3.727,3.067a.3.3,0,0,1-.337.07.32.32,0,0,1-.187-.3V17.278c-3.906,0-8.972-.306-8.6-5.3.572,3.743,4.62,2.867,8.6,2.867V13.021a.32.32,0,0,1,.185-.3.3.3,0,0,1,.12-.025.3.3,0,0,1,.218.095l3.722,3.054a.345.345,0,0,1,0,.46Zm.073-4.287c-.574-3.742-4.62-2.866-8.6-2.866v1.82a.322.322,0,0,1-.187.3.3.3,0,0,1-.34-.063L5.607,8.157a.334.334,0,0,1,0-.457l3.722-3.07a.3.3,0,0,1,.338-.07.322.322,0,0,1,.187.3V6.722c3.9,0,8.972.3,8.6,5.294Z" fill="#ffd098"/>
</svg>
