<svg xmlns="http://www.w3.org/2000/svg" width="423.513" height="43.475" viewBox="0 0 423.513 43.475">
  <g id="Title" transform="translate(-748.196 -118.145)">
    <path id="Path_339" data-name="Path 339" d="M-188.468,4.424l-.98-1.512-.98,1.512h-6.384l4.172-6.412-2.912-4.424V-14.2h5.572V-7.56l.476.728.476-.728v-9.632h-1.064l-.588,2.436h-5.544l1.792-7.5h5.544l-.784,3.3h7.252v1.764h-1.036v10.78l-2.912,4.536,4,6.3Zm-7.672-2.492-13.384,1.456v-1.9l.476-.056V-14.084h4.452V.952l.756-.084V-18.4h-5.684v-1.876h13.384V-18.4h-1.932v8.148h1.568v1.876h-1.568V.252l1.932-.2ZM-164.3-7.924l-1.26,9.632,4.76-.476-.868-7.2h5.74l1.288,10.584h-5.74l-.168-1.372-12.152,1.2-.28-2.016,1.092-.112,1.372-10.248h-2.436v-1.9h5.684v-6.048H-172.2v-1.876h4.928v-4.48h6.972v4.48h4.9v1.876h-4.9v6.048h5.656v1.9Zm-10.08-13.44.392,6.44h-6.1l-.392-6.44Zm0,7.924.392,6.5h-6.1l-.392-6.5Zm-5.8,7.84h6.188l-.952,10.052h-6.132Zm40.768-16.6V2.632h-1.2V-22.2h-5.992V2.632h-6.356V4.508h26.1V2.632h-6.552V-22.2Zm-14.2,4.06,1.4,15.764h5.124l-1.568-15.764Zm22.344,0-1.6,15.764h5.18l1.4-15.764Zm16.044,5.152-2.268-1.624-.308.812h-6.8l3.136-8.484h6.972l-.7,1.792h13.58a1.667,1.667,0,0,1,1.218.518,1.7,1.7,0,0,1,.518,1.246V-14.9l-5.4,2.632,6.692,4.732h-9.128l-2.912-2.1-4.312,2.1h-10.3Zm5.04-2.744,3.22-1.764v-.532a.52.52,0,0,0-.588-.588h-8.372l-.252.672h2.856Zm8.54,10.248a1.667,1.667,0,0,1,1.218.518A1.7,1.7,0,0,1-99.9-3.724V4.508h-8.652V2.492h1.652V-3a.52.52,0,0,0-.588-.588h-6.272l-2.408,8.092h-7.28l2.632-8.092h-2.94v-1.9h3.556l.532-1.624h6.972l-.476,1.624Zm13.692-8.736h-1.484V4.452h-6.5V-14.224H-97.44v-1.9h1.512v-6.02h6.5v6.02h1.484Zm12.908-4.06a1.667,1.667,0,0,1,1.218.518A1.7,1.7,0,0,1-73.3-16.52V4.508H-80V2.492h1.2V-15.764a.52.52,0,0,0-.588-.588h-.028l-1.428,20.86h-5.656l1.316-20.86h-2.156v-1.932h2.268l.252-3.864h5.8l-.252,3.864Zm-11.368,16.8h-2.38l.616-11.76h2.436Zm15.848-11.76v11.76h-2.128v-11.76ZM-43.372,4.48h-7.616V2.408h2.016V-19.1q0-.56-.588-.56H-61.74V4.48h-6.188V-21.56h22.82a1.676,1.676,0,0,1,1.232.5,1.676,1.676,0,0,1,.5,1.232Zm-6.608-19.8H-61.04v-1.9h11.06ZM-50.148-.2H-60.592V-12.628h9.3a1.106,1.106,0,0,1,.812.336,1.106,1.106,0,0,1,.336.812ZM-56.28-10.724v8.652h1.288v-8.092a.5.5,0,0,0-.56-.56Zm40.964-8.736h-18.2q-.588,0-.588.56V2.408h18.788V4.256H-40.488V-19.6a1.653,1.653,0,0,1,.518-1.232,1.723,1.723,0,0,1,1.246-.5h23.408Zm-.952,1.9-5.1,9.3,4.872,9.1h-6.5L-24.64-2.268l-1.792,3.276h-6.524l5.124-9.268L-32.9-17.724h6.468l1.876,3.5,1.848-3.332ZM13.384-6.468H9.856l2.828,10.92H6.412l-2.1-8.68-2.24,8.68H-4.172l3.164-10.92h-2.6V-8.344H-.14V-16.6H-3v-1.932H-.14V-22.26H6.02v3.724h4.956a1.667,1.667,0,0,1,1.218.518,1.7,1.7,0,0,1,.518,1.246v8.428h.672ZM-3.556-.644l-9.492,2.072V-.42l1.4-.308V-12.292h-1.4v-1.876h1.4v-6.664h6.692v6.664h1.4v1.876h-1.4v10.08l1.4-.308Zm9.576-7.7H7.2v-7.672a.52.52,0,0,0-.588-.588H6.02Zm24.416-9.3H29.372v-1.848h1.26l.308-2.772H35.5L35.2-19.488h5.88v1.848H35l-.728,6.86h.784v-4.76h4.2v4.76h1.82v1.848h-1.82v3.64h1.82V-3.36h-1.82V1.4H33.768V-3.36H29.82V-5.292h3.948v-3.64H29.456Zm-10.92,3.976H15.064L16.3-21.812h4.4L20.3-19.1h2.576v1.848H20.02Zm4.4-3.528-.224-4.564H28.56l.2,4.564ZM41.1,2.352V4.4H23.912V-15.848H28.84v18.2ZM15.288-12.04h7.9v1.876H21.868v3.892h1.316V-4.34H21.868V.868L23.1.5v1.96l-7,1.988-.28-1.82,1.008-.308V-4.34h-1.54V-6.272h1.54v-3.892h-1.54ZM51.1-16.632H42.9v-1.9h9.632v-3.7h7.616v3.7h9.128v1.9h-7.7L69.16-6.412H61.936l-5.572-7.9-1.792,2.464h2.94L58.94-6.412H53.284l-.644-2.8-2.016,2.8H43.288ZM55.44,2.324h7.616V4.368H49.28V-5.544h6.16Zm.588-7h4.984l.728,5.824H56.616ZM43.68-4.62h5.4l-.84,7.784h-5.4ZM69.3,3.164H63.9l-.84-7.784h5.4ZM73.332-12.8l-2.1.336v-1.876l2.1-.336v-3.78h-2.1V-20.3h2.1v-1.9h6.02v1.9h1.6v1.848h-1.6v2.772l1.6-.252v1.9l-1.6.252v5.8h-7.2v-2.044h1.176Zm24.08,2.744V-7.98H90.524v-9.912q0-.56-.588-.56H89.4l-.56,3.976,1.372.2v1.848l-1.624-.224L87.948-7.98H81.872l.812-5.46-1.036-.14v-1.9l1.316.2.476-3.164H81.648V-20.3H83.72L84-22.2h5.936l-.28,1.9H94.78a1.676,1.676,0,0,1,1.232.5,1.676,1.676,0,0,1,.5,1.232v8.512ZM94.78-5.712a1.676,1.676,0,0,1,1.232.5,1.676,1.676,0,0,1,.5,1.232V4.452H88.284V2.408H89.74V-3.22a.52.52,0,0,0-.588-.588H81.564l-2.912,8.26H71.708l3-8.26H71.12v-1.9h4.256l.672-1.848H82.88l-.644,1.848Zm11.34-11.564a.52.52,0,0,0-.588.588V-4.48h-5.376V-17.388a1.7,1.7,0,0,1,.518-1.246,1.7,1.7,0,0,1,1.246-.518h12.936l-.728-3.024h5.712l.728,3.024h4v1.876h-3.556l1.148,4.76,2.408-1.2v2.156l-1.96.98,1.456,6.1h-5.6L117.6-8.064l-1.988,1.008V-9.212l1.512-.756-1.792-7.308Zm14.812-2.464-.448-2.436h3.584l.448,2.436Zm-6.188,5.768h-8.372v-1.876h8.372Zm-8.6,1.344h7.112a1.667,1.667,0,0,1,1.218.518A1.7,1.7,0,0,1,115-10.864v5.852h-8.848Zm3.976,5.8h.868V-10.22a.52.52,0,0,0-.588-.588h-.28Zm1.456,9.24h7.448V4.4H105.7V-3.892h5.88Zm1.484-1.064-.644-4.788H117.1l.644,4.788Zm-13.3-4.732h5.376l-.84,7.112H98.924Zm25.508,7.112H119.9l-.84-7.112h5.376ZM139.86-7.448l1.484,11.564h-4.956l-.728-6.5-1.092,6.5H128.1l2.38-13.5h-3.136v-1.932h3.472l1.26-7.224h-.644l-.784,3.808H126.84l1.288-7.756h4.144l-.42,2.016h8.54v1.932H138.4l-1.232,7.224h3.276V-9.38h-3.584l-.336,1.932Zm11.368-11.928a1.667,1.667,0,0,1,1.218.518,1.7,1.7,0,0,1,.518,1.246V2.66H141.456V-19.376Zm-3.136,2.408a.52.52,0,0,0-.588-.588h-.9V.784h1.484Zm16.52,10.78H154.98V-8.064h9.632V-19.8h-8.68v-1.9H180.4v1.9H171.7V-8.064h9.66v1.876H171.7V4.452h-7.084Zm-.98-3.724h-6.076l-1.036-8.176h5.908Zm9.24,0,1.176-8.176h5.936l-1.036,8.176Zm28.588-2.1-18,1.792-.224-2.072.98-.084,4.732-9.884H196l-4.032,9.184,8.988-.784L199.3-19.8h7l2.744,9.828h-7ZM206.108-8.9a1.676,1.676,0,0,1,1.232.5,1.676,1.676,0,0,1,.5,1.232V4.508H184.856V-8.9Zm-5.264,2.436q0-.56-.588-.56h-8.372V2.66h8.96Z" transform="translate(960 157)" fill="#fff"/>
    <path id="Path_338" data-name="Path 338" d="M-203.478-10.637l-5.455,8.75h1.764a6.314,6.314,0,0,0,1.75-.164,3.03,3.03,0,0,0,1.408-.9,3.644,3.644,0,0,0,.807-1.764h.273l-.383,3.35h-8.49l5.455-8.764h-1.367a8.224,8.224,0,0,0-1.053.041,2.745,2.745,0,0,0-.9.355,2.124,2.124,0,0,0-.7.7,3.791,3.791,0,0,0-.437,1.107h-.246l.246-2.707Zm4.341,4.813v2.871a3.048,3.048,0,0,0,.075.889.666.666,0,0,0,.308.308,1.259,1.259,0,0,0,.615.13h.314v.26h-4.854v-.26h.314a1.318,1.318,0,0,0,.643-.137.623.623,0,0,0,.273-.328,2.592,2.592,0,0,0,.082-.861v-6.1a3.048,3.048,0,0,0-.075-.889.7.7,0,0,0-.308-.314,1.207,1.207,0,0,0-.615-.137h-.314v-.246h4.854v.246h-.314a1.219,1.219,0,0,0-.643.15.687.687,0,0,0-.287.328,3.086,3.086,0,0,0-.068.861v2.625h3.268V-9.051a3.048,3.048,0,0,0-.075-.889.7.7,0,0,0-.308-.314,1.207,1.207,0,0,0-.615-.137h-.3v-.246h4.84v.246h-.3a1.249,1.249,0,0,0-.656.15.623.623,0,0,0-.273.328,2.592,2.592,0,0,0-.082.861v6.1a3.048,3.048,0,0,0,.075.889.666.666,0,0,0,.308.308,1.292,1.292,0,0,0,.629.13h.3v.26h-4.84v-.26h.3a1.27,1.27,0,0,0,.643-.137.687.687,0,0,0,.287-.328,3.086,3.086,0,0,0,.068-.861V-5.824Zm10.589-4.279V-6.33h.178a1.472,1.472,0,0,0,1.285-.554,3.406,3.406,0,0,0,.506-1.634h.26v4.854h-.26a3.584,3.584,0,0,0-.349-1.3,1.528,1.528,0,0,0-.615-.684,2.267,2.267,0,0,0-1-.178v2.611a3.97,3.97,0,0,0,.062.937.544.544,0,0,0,.239.28,1.139,1.139,0,0,0,.574.109h.561a3.312,3.312,0,0,0,2.078-.6,3.36,3.36,0,0,0,1.121-1.832h.26l-.424,2.953h-8.012v-.26h.314a1.318,1.318,0,0,0,.643-.137.623.623,0,0,0,.273-.328,2.592,2.592,0,0,0,.082-.861v-6.1a4.188,4.188,0,0,0-.041-.779.7.7,0,0,0-.246-.369,1.175,1.175,0,0,0-.711-.191h-.314v-.246h7.766V-7.9h-.26a3.418,3.418,0,0,0-.561-1.436,2.048,2.048,0,0,0-1.012-.643,5.5,5.5,0,0,0-1.436-.123Zm8.73-.533,4.566,5.742V-8.873a1.965,1.965,0,0,0-.232-1.135,1.332,1.332,0,0,0-1.107-.383v-.246h3.063v.246a2.444,2.444,0,0,0-.786.2.788.788,0,0,0-.314.39,2.616,2.616,0,0,0-.116.93v7.711h-.232l-6.262-7.711V-2.98a1.3,1.3,0,0,0,.362,1.073,1.335,1.335,0,0,0,.841.28h.219v.26h-3.295v-.26a1.469,1.469,0,0,0,1.066-.308,1.471,1.471,0,0,0,.3-1.046V-9.529l-.191-.246a1.869,1.869,0,0,0-.526-.485,1.564,1.564,0,0,0-.649-.13v-.246Zm15.99-.219v3.268h-.246a4.2,4.2,0,0,0-1.381-2.037,3.226,3.226,0,0,0-2-.7,2.575,2.575,0,0,0-1.729.588,3.184,3.184,0,0,0-.978,1.634,8.046,8.046,0,0,0-.287,2.14,7.871,7.871,0,0,0,.314,2.345,2.663,2.663,0,0,0,1.012,1.477,2.906,2.906,0,0,0,1.668.472,3.3,3.3,0,0,0,.684-.075,5.166,5.166,0,0,0,.725-.212V-3.883a2.02,2.02,0,0,0-.075-.7.7.7,0,0,0-.314-.287A1.172,1.172,0,0,0-167-5h-.246v-.26h4.512V-5a1.836,1.836,0,0,0-.718.137.723.723,0,0,0-.308.355,1.687,1.687,0,0,0-.068.629v1.928a9.3,9.3,0,0,1-1.846.6,9.5,9.5,0,0,1-2,.205,5.745,5.745,0,0,1-2.187-.362,5.511,5.511,0,0,1-1.538-.943,4.505,4.505,0,0,1-1.046-1.319,4.587,4.587,0,0,1-.479-2.105,4.761,4.761,0,0,1,1.47-3.534,5.065,5.065,0,0,1,3.7-1.442,6.381,6.381,0,0,1,1.244.109,6.611,6.611,0,0,1,.978.308,4.138,4.138,0,0,0,.8.253.544.544,0,0,0,.355-.137,1.22,1.22,0,0,0,.3-.533Zm4.806.752v3.8h.26a2.356,2.356,0,0,0,1-.185,1.6,1.6,0,0,0,.663-.622,2.8,2.8,0,0,0,.355-1.176h.232v4.648h-.232a2.4,2.4,0,0,0-.711-1.736,2.153,2.153,0,0,0-1.312-.424h-.26v2.844a3.048,3.048,0,0,0,.075.889.666.666,0,0,0,.308.308,1.259,1.259,0,0,0,.615.13h.314v.26h-4.854v-.26h.314a1.318,1.318,0,0,0,.643-.137.623.623,0,0,0,.273-.328,2.592,2.592,0,0,0,.082-.861v-6.1a3.048,3.048,0,0,0-.075-.889.7.7,0,0,0-.308-.314,1.207,1.207,0,0,0-.615-.137h-.314v-.246h7.82v2.652h-.273a2.443,2.443,0,0,0-.492-1.381,2.2,2.2,0,0,0-1.135-.643,7.886,7.886,0,0,0-1.518-.1Zm10.234,6.1h-3.268l-.4.9a2,2,0,0,0-.191.738.61.61,0,0,0,.314.574,2.726,2.726,0,0,0,.916.164v.26h-3.09v-.26a1.344,1.344,0,0,0,.827-.41,5.484,5.484,0,0,0,.786-1.395l3.322-7.4h.123l3.35,7.6a4.632,4.632,0,0,0,.779,1.354,1.022,1.022,0,0,0,.656.246v.26h-4.484v-.26h.191a1.387,1.387,0,0,0,.752-.15.365.365,0,0,0,.15-.314.774.774,0,0,0-.041-.246,5.4,5.4,0,0,0-.205-.52Zm-.232-.506-1.381-3.2-1.422,3.2Zm14.185-6.125v.246a1.4,1.4,0,0,0-.7.273,7.121,7.121,0,0,0-1.08,1.559l-2.01,3.363v2.242a3.048,3.048,0,0,0,.075.889.675.675,0,0,0,.294.308,1.147,1.147,0,0,0,.588.13h.52v.26h-5.2v-.26h.479a1.351,1.351,0,0,0,.656-.137.623.623,0,0,0,.273-.328,2.592,2.592,0,0,0,.082-.861V-4.812l-2.187-3.979a5.663,5.663,0,0,0-.909-1.381,1.211,1.211,0,0,0-.718-.219v-.246h4.443v.246h-.191a1,1,0,0,0-.567.116.322.322,0,0,0-.157.253,4.064,4.064,0,0,0,.547,1.23l1.668,3.076,1.668-2.8a3.705,3.705,0,0,0,.629-1.354.369.369,0,0,0-.178-.314,1.806,1.806,0,0,0-.861-.205v-.246Zm3.685.533V-6.33h.178a1.472,1.472,0,0,0,1.285-.554,3.406,3.406,0,0,0,.506-1.634h.26v4.854h-.26a3.584,3.584,0,0,0-.349-1.3,1.528,1.528,0,0,0-.615-.684,2.267,2.267,0,0,0-1-.178v2.611a3.97,3.97,0,0,0,.062.937.544.544,0,0,0,.239.28,1.139,1.139,0,0,0,.574.109h.561a3.312,3.312,0,0,0,2.078-.6,3.36,3.36,0,0,0,1.121-1.832h.26l-.424,2.953h-8.012v-.26h.314a1.318,1.318,0,0,0,.643-.137.623.623,0,0,0,.273-.328,2.592,2.592,0,0,0,.082-.861v-6.1a4.188,4.188,0,0,0-.041-.779.7.7,0,0,0-.246-.369,1.175,1.175,0,0,0-.711-.191h-.314v-.246h7.766V-7.9h-.26a3.418,3.418,0,0,0-.561-1.436,2.048,2.048,0,0,0-1.012-.643,5.5,5.5,0,0,0-1.436-.123Zm19.12-.533v.246a.926.926,0,0,0-.437.15,1.068,1.068,0,0,0-.314.369q-.041.082-.424,1.066l-2.912,7.643h-.26l-2.3-5.975-2.529,5.975h-.26l-3.049-7.561a8.1,8.1,0,0,0-.649-1.388.844.844,0,0,0-.622-.28v-.246h4.02v.246a1.113,1.113,0,0,0-.643.15.414.414,0,0,0-.164.328A4.048,4.048,0,0,0-122.23-8.8l1.818,4.5,1.449-3.514-.383-.984a7.59,7.59,0,0,0-.485-1.08,1.06,1.06,0,0,0-.39-.39,1.444,1.444,0,0,0-.656-.116v-.246h4.5v.246a2.639,2.639,0,0,0-.684.082.4.4,0,0,0-.219.157.43.43,0,0,0-.082.253,4.7,4.7,0,0,0,.3.971l1.7,4.389,1.5-3.979a7.673,7.673,0,0,0,.3-.841,1.778,1.778,0,0,0,.055-.417.547.547,0,0,0-.191-.437,1.235,1.235,0,0,0-.738-.178v-.246Zm.171,0h4.785v.246h-.232a1.631,1.631,0,0,0-.745.116.683.683,0,0,0-.287.314,3.216,3.216,0,0,0-.089.991V-4.43a4.542,4.542,0,0,0,.191,1.647,1.589,1.589,0,0,0,.622.67,2.033,2.033,0,0,0,1.087.267,2.3,2.3,0,0,0,1.278-.342,2.127,2.127,0,0,0,.793-.937A5.6,5.6,0,0,0-104.19-5.2V-8.969a2.212,2.212,0,0,0-.13-.9.729.729,0,0,0-.335-.362,1.83,1.83,0,0,0-.861-.164v-.246h3.2v.246h-.191a1.221,1.221,0,0,0-.643.157.924.924,0,0,0-.383.472,2.579,2.579,0,0,0-.082.793v3.514a9.047,9.047,0,0,1-.219,2.365,2.651,2.651,0,0,1-1.053,1.333,3.777,3.777,0,0,1-2.27.608,4.247,4.247,0,0,1-1.859-.328A2.729,2.729,0,0,1-110.288-2.6a3.867,3.867,0,0,1-.369-1.832V-8.969a3.21,3.21,0,0,0-.089-1,.669.669,0,0,0-.308-.308,1.913,1.913,0,0,0-.807-.116Zm15.415,3.828,2.557,3.8a5.365,5.365,0,0,0,.9,1.142,1.322,1.322,0,0,0,.643.239v.26h-4.525v-.26a1.48,1.48,0,0,0,.7-.164.37.37,0,0,0,.157-.3.433.433,0,0,0-.055-.219,6.942,6.942,0,0,0-.479-.766l-1.354-2L-99.3-3.35a2.522,2.522,0,0,0-.643,1.066.533.533,0,0,0,.164.376.926.926,0,0,0,.492.239,2.582,2.582,0,0,0,.588.041v.26h-3.568v-.26a2.108,2.108,0,0,0,.957-.328,7.25,7.25,0,0,0,1.285-1.312l1.832-2.242-2.352-3.459q-.588-.861-.67-.957a1.225,1.225,0,0,0-.355-.314,1.661,1.661,0,0,0-.492-.15v-.246h4.594v.246H-97.7a.889.889,0,0,0-.554.13.4.4,0,0,0-.157.321.575.575,0,0,0,.055.26l.465.711,1.148,1.75.984-1.2a2.785,2.785,0,0,0,.752-1.285.6.6,0,0,0-.109-.349.725.725,0,0,0-.308-.246,1.569,1.569,0,0,0-.608-.089v-.246h3.4v.246a2.15,2.15,0,0,0-.643.1,1.681,1.681,0,0,0-.533.349q-.178.164-.889,1.012Zm9.031,5.182v.26h-4.854v-.26h.314a1.318,1.318,0,0,0,.643-.137.623.623,0,0,0,.273-.328,2.592,2.592,0,0,0,.082-.861v-6.1a3.048,3.048,0,0,0-.075-.889.7.7,0,0,0-.308-.314,1.207,1.207,0,0,0-.615-.137h-.314v-.246h4.854v.246h-.314a1.219,1.219,0,0,0-.643.15.687.687,0,0,0-.287.328,3.086,3.086,0,0,0-.068.861v6.1a3.048,3.048,0,0,0,.075.889.666.666,0,0,0,.308.308,1.259,1.259,0,0,0,.615.13Zm3.849-8.477V-6.33h.178A1.472,1.472,0,0,0-82.1-6.884,3.406,3.406,0,0,0-81.6-8.518h.26v4.854h-.26a3.584,3.584,0,0,0-.349-1.3,1.528,1.528,0,0,0-.615-.684,2.267,2.267,0,0,0-1-.178v2.611a3.97,3.97,0,0,0,.062.937.544.544,0,0,0,.239.28,1.139,1.139,0,0,0,.574.109h.561a3.312,3.312,0,0,0,2.078-.6A3.36,3.36,0,0,0-78.93-4.32h.26l-.424,2.953h-8.012v-.26h.314a1.318,1.318,0,0,0,.643-.137.623.623,0,0,0,.273-.328,2.592,2.592,0,0,0,.082-.861v-6.1a4.188,4.188,0,0,0-.041-.779.7.7,0,0,0-.246-.369,1.175,1.175,0,0,0-.711-.191h-.314v-.246h7.766V-7.9h-.26a3.418,3.418,0,0,0-.561-1.436,2.048,2.048,0,0,0-1.012-.643,5.5,5.5,0,0,0-1.436-.123Zm14.075-.533v2.5h-.246a4.005,4.005,0,0,0-.485-1.244,1.805,1.805,0,0,0-.731-.6,2.317,2.317,0,0,0-.9-.123h-.7v7.15a2.8,2.8,0,0,0,.082.889.712.712,0,0,0,.308.308,1.251,1.251,0,0,0,.622.13h.314v.26H-76.08v-.26h.3a1.351,1.351,0,0,0,.656-.137.623.623,0,0,0,.273-.328,2.592,2.592,0,0,0,.082-.861V-10.1h-.67a1.96,1.96,0,0,0-1.367.4,2.64,2.64,0,0,0-.752,1.572h-.26v-2.5Zm5.64-.137a4.618,4.618,0,0,1,3.6,1.292,4.653,4.653,0,0,1,1.381,3.438,4.965,4.965,0,0,1-1.025,3.1,4.6,4.6,0,0,1-3.869,1.777,4.687,4.687,0,0,1-3.869-1.7,4.9,4.9,0,0,1-1.08-3.172,4.629,4.629,0,0,1,1.408-3.445A4.477,4.477,0,0,1-63.85-10.773Zm.082.438a2.1,2.1,0,0,0-1.941,1.3,7.02,7.02,0,0,0-.533,3.063,5.959,5.959,0,0,0,.834,3.514,1.89,1.89,0,0,0,1.627.793,1.97,1.97,0,0,0,1.176-.342,2.808,2.808,0,0,0,.937-1.4,7.8,7.8,0,0,0,.335-2.509,8.33,8.33,0,0,0-.342-2.748,2.667,2.667,0,0,0-.875-1.292A2.059,2.059,0,0,0-63.768-10.336Zm8.593-.3,4.566,5.742V-8.873a1.965,1.965,0,0,0-.232-1.135,1.332,1.332,0,0,0-1.107-.383v-.246h3.063v.246a2.444,2.444,0,0,0-.786.2.788.788,0,0,0-.314.39,2.616,2.616,0,0,0-.116.93v7.711h-.232L-56.6-8.873V-2.98a1.3,1.3,0,0,0,.362,1.073,1.335,1.335,0,0,0,.841.28h.219v.26H-58.47v-.26A1.469,1.469,0,0,0-57.4-1.935a1.471,1.471,0,0,0,.3-1.046V-9.529l-.191-.246a1.869,1.869,0,0,0-.526-.485,1.564,1.564,0,0,0-.649-.13v-.246Zm15.99-.219v3.268h-.246a4.2,4.2,0,0,0-1.381-2.037,3.226,3.226,0,0,0-2-.7,2.575,2.575,0,0,0-1.729.588A3.184,3.184,0,0,0-45.515-8.1a8.046,8.046,0,0,0-.287,2.14,7.872,7.872,0,0,0,.314,2.345A2.663,2.663,0,0,0-44.476-2.14a2.906,2.906,0,0,0,1.668.472,3.3,3.3,0,0,0,.684-.075,5.166,5.166,0,0,0,.725-.212V-3.883a2.02,2.02,0,0,0-.075-.7.7.7,0,0,0-.314-.287A1.172,1.172,0,0,0-42.357-5H-42.6v-.26h4.512V-5a1.836,1.836,0,0,0-.718.137.723.723,0,0,0-.308.355,1.687,1.687,0,0,0-.068.629v1.928a9.3,9.3,0,0,1-1.846.6,9.5,9.5,0,0,1-2,.205,5.745,5.745,0,0,1-2.187-.362,5.511,5.511,0,0,1-1.538-.943A4.505,4.505,0,0,1-47.8-3.773a4.587,4.587,0,0,1-.479-2.105,4.761,4.761,0,0,1,1.47-3.534,5.065,5.065,0,0,1,3.7-1.442,6.381,6.381,0,0,1,1.244.109,6.611,6.611,0,0,1,.978.308,4.138,4.138,0,0,0,.8.253.544.544,0,0,0,.355-.137,1.22,1.22,0,0,0,.3-.533Zm7.65,9.57a2.649,2.649,0,0,0,.978,1.36A2.855,2.855,0,0,0-28.9.533a3.213,3.213,0,0,0,.574-.055V.9a7.6,7.6,0,0,1-1.846.26A4.2,4.2,0,0,1-32.438.54a3.823,3.823,0,0,1-1.5-1.825,4.572,4.572,0,0,1-2.714-1.647,4.787,4.787,0,0,1-1.032-3.083,4.668,4.668,0,0,1,1.395-3.459,4.823,4.823,0,0,1,3.541-1.381,4.8,4.8,0,0,1,3.534,1.381A4.68,4.68,0,0,1-27.83-6.016a4.813,4.813,0,0,1-1.087,3.138A4.231,4.231,0,0,1-31.536-1.285Zm-1.217-9.051a2.076,2.076,0,0,0-1.9,1.285A6.683,6.683,0,0,0-35.213-6a6.027,6.027,0,0,0,.834,3.527,1.9,1.9,0,0,0,1.627.807,1.877,1.877,0,0,0,1.613-.793,5.6,5.6,0,0,0,.848-3.391,7.237,7.237,0,0,0-.533-3.227A2.078,2.078,0,0,0-32.752-10.336Zm5.449-.3h4.785v.246h-.232a1.631,1.631,0,0,0-.745.116.683.683,0,0,0-.287.314,3.216,3.216,0,0,0-.089.991V-4.43a4.542,4.542,0,0,0,.191,1.647,1.589,1.589,0,0,0,.622.67,2.033,2.033,0,0,0,1.087.267,2.3,2.3,0,0,0,1.278-.342,2.127,2.127,0,0,0,.793-.937A5.6,5.6,0,0,0-19.634-5.2V-8.969a2.212,2.212,0,0,0-.13-.9.729.729,0,0,0-.335-.362,1.83,1.83,0,0,0-.861-.164v-.246h3.2v.246h-.191a1.221,1.221,0,0,0-.643.157.924.924,0,0,0-.383.472,2.579,2.579,0,0,0-.082.793v3.514a9.047,9.047,0,0,1-.219,2.365,2.651,2.651,0,0,1-1.053,1.333,3.777,3.777,0,0,1-2.27.608,4.247,4.247,0,0,1-1.859-.328A2.729,2.729,0,0,1-25.732-2.6,3.867,3.867,0,0,1-26.1-4.43V-8.969a3.21,3.21,0,0,0-.089-1,.669.669,0,0,0-.308-.308,1.913,1.913,0,0,0-.807-.116ZM-11.971-7.1l3.254,4.088A5.26,5.26,0,0,0-7.527-1.846a1.482,1.482,0,0,0,.766.219v.26h-4.826v-.26a1.284,1.284,0,0,0,.595-.144.311.311,0,0,0,.13-.253,2.5,2.5,0,0,0-.629-1.08L-13.611-5.77l-.342.287v2.529a2.873,2.873,0,0,0,.082.9.674.674,0,0,0,.314.3,1.659,1.659,0,0,0,.738.123v.26h-4.676v-.26h.314a1.318,1.318,0,0,0,.643-.137.623.623,0,0,0,.273-.328,2.592,2.592,0,0,0,.082-.861v-6.1a3.048,3.048,0,0,0-.075-.889.7.7,0,0,0-.308-.314,1.207,1.207,0,0,0-.615-.137h-.314v-.246h4.621v.246a1.526,1.526,0,0,0-.725.137.623.623,0,0,0-.273.328,2.658,2.658,0,0,0-.082.875v2.885l3.432-2.789q.725-.574.725-.93a.457.457,0,0,0-.3-.41,2.637,2.637,0,0,0-.738-.1v-.246h3.609v.246a2.186,2.186,0,0,0-.759.178,10.148,10.148,0,0,0-1.278.943Zm5.093-3.541h4.785v.246h-.232a1.631,1.631,0,0,0-.745.116.683.683,0,0,0-.287.314,3.216,3.216,0,0,0-.089.991V-4.43a4.542,4.542,0,0,0,.191,1.647,1.589,1.589,0,0,0,.622.67,2.033,2.033,0,0,0,1.087.267A2.3,2.3,0,0,0-.267-2.187a2.127,2.127,0,0,0,.793-.937A5.6,5.6,0,0,0,.792-5.2V-8.969a2.212,2.212,0,0,0-.13-.9.729.729,0,0,0-.335-.362,1.83,1.83,0,0,0-.861-.164v-.246h3.2v.246H2.474a1.221,1.221,0,0,0-.643.157.924.924,0,0,0-.383.472,2.579,2.579,0,0,0-.082.793v3.514A9.047,9.047,0,0,1,1.148-3.09,2.651,2.651,0,0,1,.1-1.757a3.777,3.777,0,0,1-2.27.608,4.247,4.247,0,0,1-1.859-.328A2.729,2.729,0,0,1-5.305-2.6,3.867,3.867,0,0,1-5.674-4.43V-8.969a3.21,3.21,0,0,0-.089-1,.669.669,0,0,0-.308-.308,1.913,1.913,0,0,0-.807-.116ZM8.442-4.006H5.175l-.4.9a2,2,0,0,0-.191.738.61.61,0,0,0,.314.574,2.726,2.726,0,0,0,.916.164v.26H2.727v-.26a1.344,1.344,0,0,0,.827-.41,5.484,5.484,0,0,0,.786-1.395l3.322-7.4h.123l3.35,7.6a4.632,4.632,0,0,0,.779,1.354,1.022,1.022,0,0,0,.656.246v.26H8.087v-.26h.191a1.387,1.387,0,0,0,.752-.15.365.365,0,0,0,.15-.314.774.774,0,0,0-.041-.246,5.407,5.407,0,0,0-.205-.52ZM8.21-4.512l-1.381-3.2-1.422,3.2Zm9.359,2.885v.26H12.715v-.26h.314a1.318,1.318,0,0,0,.643-.137.623.623,0,0,0,.273-.328,2.592,2.592,0,0,0,.082-.861v-6.1a3.048,3.048,0,0,0-.075-.889.7.7,0,0,0-.308-.314,1.207,1.207,0,0,0-.615-.137h-.314v-.246h4.854v.246h-.314a1.219,1.219,0,0,0-.643.15.687.687,0,0,0-.287.328,3.086,3.086,0,0,0-.068.861v6.1a3.048,3.048,0,0,0,.075.889.666.666,0,0,0,.308.308,1.259,1.259,0,0,0,.615.13Zm8.88-2.994-.355,3.254h-8.23v-.26h.314a1.318,1.318,0,0,0,.643-.137.623.623,0,0,0,.273-.328,2.592,2.592,0,0,0,.082-.861v-6.1a3.048,3.048,0,0,0-.075-.889.7.7,0,0,0-.308-.314,1.207,1.207,0,0,0-.615-.137h-.314v-.246h4.949v.246H22.4a1.219,1.219,0,0,0-.643.15.687.687,0,0,0-.287.328,3.086,3.086,0,0,0-.068.861v5.906a2.955,2.955,0,0,0,.082.9.547.547,0,0,0,.314.287,3.022,3.022,0,0,0,.834.068H23.4a2.617,2.617,0,0,0,1.23-.26,2.319,2.319,0,0,0,.854-.82,6.406,6.406,0,0,0,.677-1.654Zm5.339,2.994v.26H26.934v-.26h.314a1.318,1.318,0,0,0,.643-.137.623.623,0,0,0,.273-.328,2.592,2.592,0,0,0,.082-.861v-6.1a3.048,3.048,0,0,0-.075-.889.7.7,0,0,0-.308-.314,1.207,1.207,0,0,0-.615-.137h-.314v-.246h4.854v.246h-.314a1.219,1.219,0,0,0-.643.15.687.687,0,0,0-.287.328,3.086,3.086,0,0,0-.068.861v6.1a3.048,3.048,0,0,0,.075.889.666.666,0,0,0,.308.308,1.259,1.259,0,0,0,.615.13Zm5.859-2.379H34.379l-.4.9a2,2,0,0,0-.191.738.61.61,0,0,0,.314.574,2.726,2.726,0,0,0,.916.164v.26h-3.09v-.26a1.344,1.344,0,0,0,.827-.41,5.484,5.484,0,0,0,.786-1.395l3.322-7.4h.123l3.35,7.6a4.632,4.632,0,0,0,.779,1.354,1.022,1.022,0,0,0,.656.246v.26H37.291v-.26h.191a1.387,1.387,0,0,0,.752-.15.365.365,0,0,0,.15-.314.774.774,0,0,0-.041-.246,5.406,5.406,0,0,0-.205-.52Zm-.232-.506-1.381-3.2-1.422,3.2Zm7.718-6.125L49.7-4.895V-8.873a1.965,1.965,0,0,0-.232-1.135,1.332,1.332,0,0,0-1.107-.383v-.246h3.063v.246a2.444,2.444,0,0,0-.786.2.788.788,0,0,0-.314.39,2.616,2.616,0,0,0-.116.93v7.711h-.232L43.71-8.873V-2.98a1.3,1.3,0,0,0,.362,1.073,1.335,1.335,0,0,0,.841.28h.219v.26H41.837v-.26A1.469,1.469,0,0,0,42.9-1.935a1.471,1.471,0,0,0,.3-1.046V-9.529l-.191-.246a1.869,1.869,0,0,0-.526-.485,1.564,1.564,0,0,0-.649-.13v-.246Zm15.169,0v2.5h-.246a4.005,4.005,0,0,0-.485-1.244,1.806,1.806,0,0,0-.731-.6,2.317,2.317,0,0,0-.9-.123h-.7v7.15a2.8,2.8,0,0,0,.082.889.712.712,0,0,0,.308.308,1.251,1.251,0,0,0,.622.13h.314v.26H53.711v-.26h.3a1.351,1.351,0,0,0,.656-.137.623.623,0,0,0,.273-.328,2.592,2.592,0,0,0,.082-.861V-10.1h-.67a1.96,1.96,0,0,0-1.367.4,2.641,2.641,0,0,0-.752,1.572h-.26v-2.5Zm6.05,6.631H63.084l-.4.9a2,2,0,0,0-.191.738.61.61,0,0,0,.314.574,2.726,2.726,0,0,0,.916.164v.26h-3.09v-.26a1.344,1.344,0,0,0,.827-.41,5.484,5.484,0,0,0,.786-1.395l3.322-7.4h.123l3.35,7.6a4.632,4.632,0,0,0,.779,1.354,1.022,1.022,0,0,0,.656.246v.26H66v-.26h.191a1.387,1.387,0,0,0,.752-.15.365.365,0,0,0,.15-.314.774.774,0,0,0-.041-.246,5.408,5.408,0,0,0-.205-.52Zm-.232-.506-1.381-3.2-1.422,3.2Zm9.359,2.885v.26H70.624v-.26h.314a1.318,1.318,0,0,0,.643-.137.623.623,0,0,0,.273-.328,2.592,2.592,0,0,0,.082-.861v-6.1a3.048,3.048,0,0,0-.075-.889.7.7,0,0,0-.308-.314,1.207,1.207,0,0,0-.615-.137h-.314v-.246h4.854v.246h-.314a1.219,1.219,0,0,0-.643.15.687.687,0,0,0-.287.328,3.086,3.086,0,0,0-.068.861v6.1a3.048,3.048,0,0,0,.075.889.666.666,0,0,0,.308.308,1.259,1.259,0,0,0,.615.13Zm6.611-9.229.082,3.09h-.287a3.107,3.107,0,0,0-.971-1.866,2.467,2.467,0,0,0-1.682-.7,1.568,1.568,0,0,0-1.1.369,1.135,1.135,0,0,0-.4.861,1.107,1.107,0,0,0,.137.547,2.486,2.486,0,0,0,.643.629,12.346,12.346,0,0,0,1.477.807,6.624,6.624,0,0,1,2.2,1.5,2.556,2.556,0,0,1,.561,1.627,2.637,2.637,0,0,1-.909,2,3.261,3.261,0,0,1-2.3.841,3.712,3.712,0,0,1-.827-.089,6.247,6.247,0,0,1-.978-.335,1.472,1.472,0,0,0-.533-.137.67.67,0,0,0-.376.137.961.961,0,0,0-.321.41h-.26v-3.5h.26a4.043,4.043,0,0,0,1.155,2.256,2.7,2.7,0,0,0,1.853.779,1.722,1.722,0,0,0,1.217-.417,1.292,1.292,0,0,0,.451-.978A1.293,1.293,0,0,0,81-3.657a1.937,1.937,0,0,0-.526-.581,8.538,8.538,0,0,0-1.258-.725,10.565,10.565,0,0,1-1.825-1.053,3.206,3.206,0,0,1-.848-.978,2.461,2.461,0,0,1-.294-1.2,2.517,2.517,0,0,1,.813-1.887,2.837,2.837,0,0,1,2.044-.779,3.488,3.488,0,0,1,.875.109,4.094,4.094,0,0,1,.786.308,1.793,1.793,0,0,0,.649.226.366.366,0,0,0,.28-.109,1.233,1.233,0,0,0,.185-.533Zm4.751,5.031v2.871a3.048,3.048,0,0,0,.075.889.666.666,0,0,0,.308.308,1.259,1.259,0,0,0,.615.13h.314v.26H83.3v-.26h.314a1.318,1.318,0,0,0,.643-.137.623.623,0,0,0,.273-.328,2.592,2.592,0,0,0,.082-.861v-6.1a3.048,3.048,0,0,0-.075-.889.7.7,0,0,0-.308-.314,1.207,1.207,0,0,0-.615-.137H83.3v-.246h4.854v.246h-.314a1.219,1.219,0,0,0-.643.15.687.687,0,0,0-.287.328,3.086,3.086,0,0,0-.068.861v2.625h3.268V-9.051a3.048,3.048,0,0,0-.075-.889.7.7,0,0,0-.308-.314,1.207,1.207,0,0,0-.615-.137h-.3v-.246h4.84v.246h-.3a1.249,1.249,0,0,0-.656.15.623.623,0,0,0-.273.328,2.592,2.592,0,0,0-.082.861v6.1a3.048,3.048,0,0,0,.075.889.666.666,0,0,0,.308.308,1.292,1.292,0,0,0,.629.13h.3v.26h-4.84v-.26h.3a1.27,1.27,0,0,0,.643-.137.687.687,0,0,0,.287-.328,3.086,3.086,0,0,0,.068-.861V-5.824Zm11.9,4.2v.26H93.887v-.26H94.2a1.318,1.318,0,0,0,.643-.137.623.623,0,0,0,.273-.328,2.592,2.592,0,0,0,.082-.861v-6.1a3.048,3.048,0,0,0-.075-.889.7.7,0,0,0-.308-.314,1.207,1.207,0,0,0-.615-.137h-.314v-.246h4.854v.246h-.314a1.219,1.219,0,0,0-.643.15.687.687,0,0,0-.287.328,3.086,3.086,0,0,0-.068.861v6.1a3.048,3.048,0,0,0,.075.889.666.666,0,0,0,.308.308,1.259,1.259,0,0,0,.615.13Zm9.687-9.229v3.268h-.246A4.2,4.2,0,0,0,106.8-9.625a3.226,3.226,0,0,0-2-.7,2.575,2.575,0,0,0-1.729.588A3.184,3.184,0,0,0,102.1-8.1a8.046,8.046,0,0,0-.287,2.14,7.872,7.872,0,0,0,.314,2.345,2.663,2.663,0,0,0,1.012,1.477,2.906,2.906,0,0,0,1.668.472,3.3,3.3,0,0,0,.684-.075,5.166,5.166,0,0,0,.725-.212V-3.883a2.02,2.02,0,0,0-.075-.7.7.7,0,0,0-.314-.287,1.172,1.172,0,0,0-.567-.13h-.246v-.26h4.512V-5a1.836,1.836,0,0,0-.718.137.723.723,0,0,0-.308.355,1.687,1.687,0,0,0-.068.629v1.928a9.3,9.3,0,0,1-1.846.6,9.5,9.5,0,0,1-2,.205,5.745,5.745,0,0,1-2.187-.362,5.511,5.511,0,0,1-1.538-.943,4.505,4.505,0,0,1-1.046-1.319,4.587,4.587,0,0,1-.479-2.105,4.761,4.761,0,0,1,1.47-3.534,5.065,5.065,0,0,1,3.7-1.442,6.381,6.381,0,0,1,1.244.109,6.611,6.611,0,0,1,.978.308,4.138,4.138,0,0,0,.8.253.544.544,0,0,0,.355-.137,1.22,1.22,0,0,0,.3-.533Zm6.775,6.85h-3.268l-.4.9a2,2,0,0,0-.191.738.61.61,0,0,0,.314.574,2.726,2.726,0,0,0,.916.164v.26h-3.09v-.26a1.344,1.344,0,0,0,.827-.41,5.484,5.484,0,0,0,.786-1.395l3.322-7.4h.123l3.35,7.6a4.632,4.632,0,0,0,.779,1.354,1.022,1.022,0,0,0,.656.246v.26h-4.484v-.26h.191a1.387,1.387,0,0,0,.752-.15.365.365,0,0,0,.15-.314.774.774,0,0,0-.041-.246,5.408,5.408,0,0,0-.205-.52Zm-.232-.506-1.381-3.2-1.422,3.2Zm7.718-6.125,4.566,5.742V-8.873a1.965,1.965,0,0,0-.232-1.135,1.332,1.332,0,0,0-1.107-.383v-.246h3.062v.246a2.444,2.444,0,0,0-.786.2.788.788,0,0,0-.314.39,2.615,2.615,0,0,0-.116.93v7.711h-.232l-6.262-7.711V-2.98a1.3,1.3,0,0,0,.362,1.073,1.335,1.335,0,0,0,.841.28h.219v.26h-3.295v-.26a1.469,1.469,0,0,0,1.066-.308,1.471,1.471,0,0,0,.3-1.046V-9.529l-.191-.246a1.869,1.869,0,0,0-.526-.485,1.564,1.564,0,0,0-.649-.13v-.246Zm14.882,0-5.455,8.75h1.764a6.314,6.314,0,0,0,1.75-.164,3.03,3.03,0,0,0,1.408-.9,3.644,3.644,0,0,0,.807-1.764h.273l-.383,3.35h-8.49l5.455-8.764h-1.367a8.224,8.224,0,0,0-1.053.041,2.745,2.745,0,0,0-.9.355,2.124,2.124,0,0,0-.7.7,3.791,3.791,0,0,0-.437,1.107H130l.246-2.707Zm4.341,4.813v2.871a3.048,3.048,0,0,0,.075.889.666.666,0,0,0,.308.308,1.259,1.259,0,0,0,.615.13h.314v.26H138.37v-.26h.314a1.318,1.318,0,0,0,.643-.137.623.623,0,0,0,.273-.328,2.592,2.592,0,0,0,.082-.861v-6.1a3.048,3.048,0,0,0-.075-.889.7.7,0,0,0-.308-.314,1.207,1.207,0,0,0-.615-.137h-.314v-.246h4.854v.246h-.314a1.219,1.219,0,0,0-.643.15.687.687,0,0,0-.287.328,3.086,3.086,0,0,0-.068.861v2.625h3.268V-9.051a3.048,3.048,0,0,0-.075-.889.7.7,0,0,0-.308-.314,1.207,1.207,0,0,0-.615-.137h-.3v-.246h4.84v.246h-.3a1.249,1.249,0,0,0-.656.15.623.623,0,0,0-.273.328,2.592,2.592,0,0,0-.082.861v6.1a3.048,3.048,0,0,0,.075.889.666.666,0,0,0,.308.308,1.292,1.292,0,0,0,.629.13h.3v.26h-4.84v-.26h.3a1.27,1.27,0,0,0,.643-.137.687.687,0,0,0,.287-.328,3.086,3.086,0,0,0,.068-.861V-5.824Zm11.9,4.2v.26h-4.854v-.26h.314a1.318,1.318,0,0,0,.643-.137.623.623,0,0,0,.273-.328,2.592,2.592,0,0,0,.082-.861v-6.1a3.048,3.048,0,0,0-.075-.889.7.7,0,0,0-.308-.314,1.207,1.207,0,0,0-.615-.137h-.314v-.246h4.854v.246H153.5a1.219,1.219,0,0,0-.643.15.687.687,0,0,0-.287.328,3.086,3.086,0,0,0-.068.861v6.1a3.048,3.048,0,0,0,.075.889.666.666,0,0,0,.308.308,1.259,1.259,0,0,0,.615.13Zm3.822-3.937v2.57a2.936,2.936,0,0,0,.089.943.659.659,0,0,0,.328.308,2.219,2.219,0,0,0,.868.116v.26H154.2v-.26a2.213,2.213,0,0,0,.875-.116.661.661,0,0,0,.321-.308,2.936,2.936,0,0,0,.089-.943V-9.01a3.009,3.009,0,0,0-.089-.95.654.654,0,0,0-.321-.314,2.213,2.213,0,0,0-.875-.116v-.246h4.047a4.543,4.543,0,0,1,2.864.711,2.206,2.206,0,0,1,.868,1.777,2.27,2.27,0,0,1-.561,1.545,2.851,2.851,0,0,1-1.545.875A10.614,10.614,0,0,1,157.635-5.564Zm0-4.539V-6.1q.219.014.342.014a1.644,1.644,0,0,0,1.285-.5,2.239,2.239,0,0,0,.451-1.538,2.135,2.135,0,0,0-.451-1.5,1.775,1.775,0,0,0-1.354-.479Zm9.6,8.477v.26h-4.854v-.26h.314a1.318,1.318,0,0,0,.643-.137.623.623,0,0,0,.273-.328,2.592,2.592,0,0,0,.082-.861v-6.1a3.048,3.048,0,0,0-.075-.889.7.7,0,0,0-.308-.314,1.207,1.207,0,0,0-.615-.137h-.314v-.246h4.854v.246h-.314a1.219,1.219,0,0,0-.643.15.687.687,0,0,0-.287.328,3.086,3.086,0,0,0-.068.861v6.1a3.048,3.048,0,0,0,.075.889.666.666,0,0,0,.308.308,1.259,1.259,0,0,0,.615.13Zm3.521-9.01,4.566,5.742V-8.873a1.965,1.965,0,0,0-.232-1.135,1.332,1.332,0,0,0-1.107-.383v-.246h3.063v.246a2.444,2.444,0,0,0-.786.2.788.788,0,0,0-.314.39,2.616,2.616,0,0,0-.116.93v7.711H175.6l-6.262-7.711V-2.98a1.3,1.3,0,0,0,.362,1.073,1.335,1.335,0,0,0,.841.28h.219v.26h-3.295v-.26a1.469,1.469,0,0,0,1.066-.308,1.471,1.471,0,0,0,.3-1.046V-9.529l-.191-.246a1.869,1.869,0,0,0-.526-.485,1.564,1.564,0,0,0-.649-.13v-.246Zm15.99-.219v3.268H186.5a4.2,4.2,0,0,0-1.381-2.037,3.226,3.226,0,0,0-2-.7,2.575,2.575,0,0,0-1.729.588A3.184,3.184,0,0,0,180.42-8.1a8.046,8.046,0,0,0-.287,2.14,7.871,7.871,0,0,0,.314,2.345,2.663,2.663,0,0,0,1.012,1.477,2.906,2.906,0,0,0,1.668.472,3.3,3.3,0,0,0,.684-.075,5.166,5.166,0,0,0,.725-.212V-3.883a2.02,2.02,0,0,0-.075-.7.7.7,0,0,0-.314-.287,1.172,1.172,0,0,0-.567-.13h-.246v-.26h4.512V-5a1.836,1.836,0,0,0-.718.137.723.723,0,0,0-.308.355,1.687,1.687,0,0,0-.068.629v1.928a9.3,9.3,0,0,1-1.846.6,9.5,9.5,0,0,1-2,.205,5.745,5.745,0,0,1-2.187-.362,5.511,5.511,0,0,1-1.538-.943,4.505,4.505,0,0,1-1.046-1.319,4.587,4.587,0,0,1-.479-2.105,4.761,4.761,0,0,1,1.47-3.534,5.065,5.065,0,0,1,3.7-1.442,6.381,6.381,0,0,1,1.244.109,6.611,6.611,0,0,1,.978.308,4.138,4.138,0,0,0,.8.253.544.544,0,0,0,.355-.137,1.22,1.22,0,0,0,.3-.533Zm9.783.219v2.5h-.246a4,4,0,0,0-.485-1.244,1.806,1.806,0,0,0-.731-.6,2.317,2.317,0,0,0-.9-.123h-.7v7.15a2.8,2.8,0,0,0,.082.889.712.712,0,0,0,.308.308,1.251,1.251,0,0,0,.622.13h.314v.26h-4.854v-.26h.3a1.351,1.351,0,0,0,.656-.137.623.623,0,0,0,.273-.328,2.592,2.592,0,0,0,.082-.861V-10.1h-.67a1.96,1.96,0,0,0-1.367.4,2.641,2.641,0,0,0-.752,1.572h-.26v-2.5Zm6.05,6.631h-3.268l-.4.9a2,2,0,0,0-.191.738.61.61,0,0,0,.314.574,2.726,2.726,0,0,0,.916.164v.26h-3.09v-.26a1.344,1.344,0,0,0,.827-.41,5.484,5.484,0,0,0,.786-1.395l3.322-7.4h.123l3.35,7.6a4.632,4.632,0,0,0,.779,1.354,1.022,1.022,0,0,0,.656.246v.26h-4.484v-.26h.191a1.387,1.387,0,0,0,.752-.15.365.365,0,0,0,.15-.314.774.774,0,0,0-.041-.246,5.4,5.4,0,0,0-.205-.52Zm-.232-.506-1.381-3.2-1.422,3.2Zm9.359,2.885v.26h-4.854v-.26h.314a1.318,1.318,0,0,0,.643-.137.623.623,0,0,0,.273-.328,2.592,2.592,0,0,0,.082-.861v-6.1a3.048,3.048,0,0,0-.075-.889.7.7,0,0,0-.308-.314,1.207,1.207,0,0,0-.615-.137h-.314v-.246h4.854v.246h-.314a1.219,1.219,0,0,0-.643.15.687.687,0,0,0-.287.328,3.086,3.086,0,0,0-.068.861v6.1a3.048,3.048,0,0,0,.075.889.666.666,0,0,0,.308.308,1.259,1.259,0,0,0,.615.13Z" transform="translate(960 129)" fill="#ffd098"/>
  </g>
</svg>
