<svg xmlns="http://www.w3.org/2000/svg" width="372.48" height="38.56" viewBox="0 0 372.48 38.56">
  <path id="Path_250" data-name="Path 250" d="M-149.88-27.8h-26q-.84,0-.84.8V3.44h26.84V6.08h-35.96V-28a2.362,2.362,0,0,1,.74-1.76,2.461,2.461,0,0,1,1.78-.72h33.44Zm-1.36,2.72-7.28,13.28,6.96,13h-9.28l-2.36-4.44-2.56,4.68h-9.32l7.32-13.24L-175-25.32h9.24l2.68,5,2.64-4.76Zm44.36,15.84h-5.04l4.04,15.6h-8.96l-3-12.4-3.2,12.4h-8.92l4.52-15.6h-3.72v-2.68h4.96v-11.8h-4.08v-2.76h4.08V-31.8h8.8v5.32h7.08a2.381,2.381,0,0,1,1.74.74,2.427,2.427,0,0,1,.74,1.78v12.04h.96Zm-24.2,8.32-13.56,2.96V-.6l2-.44V-17.56h-2v-2.68h2v-9.52h9.56v9.52h2v2.68h-2v14.4l2-.44Zm13.68-11h1.68V-22.88a.742.742,0,0,0-.84-.84h-.84ZM-80.52-25.2h-1.52v-2.64h1.8l.44-3.96h6.52l-.44,3.96h8.4v2.64H-74l-1.04,9.8h1.12v-6.8h6v6.8h2.6v2.64h-2.6v5.2h2.6V-4.8h-2.6V2h-7.84V-4.8H-81.4V-7.56h5.64v-5.2h-6.16Zm-15.6,5.68h-6.36l1.76-11.64h6.28L-95-27.28h3.68v2.64H-95.4Zm6.28-5.04-.32-6.52h6.96l.28,6.52ZM-65.28,3.36V6.28H-89.84V-22.64h7.04v26ZM-102.16-17.2h11.28v2.68h-1.88v5.56h1.88V-6.2h-1.88V1.24L-91,.72v2.8l-10,2.84-.4-2.6,1.44-.44V-6.2h-2.2V-8.96h2.2v-5.56h-2.2Zm55.44-13.52a2.381,2.381,0,0,1,1.74.74,2.427,2.427,0,0,1,.74,1.78V6.16h-8.32V3.28h1.28V-5.96h-2V6.16h-7.56V-30.72ZM-28.28,6.12l-.64-1.6-.64,1.6h-5.36l3.28-8.36-2.72-6.72v-4.2h4.88v3.68l.36.8.32-.8v-3.88a.742.742,0,0,0-.84-.84h-5.4V6.12h-7.4v-36.8h16.32a2.381,2.381,0,0,1,1.74.74,2.427,2.427,0,0,1,.74,1.78v9.56h-9.2v-2.92h1.64v-5.6a.742.742,0,0,0-.84-.84h-3v11.04h9.12a2.381,2.381,0,0,1,1.74.74,2.427,2.427,0,0,1,.74,1.78v5.44L-26.2-2.12l3.64,8.24Zm-23-33.28a.742.742,0,0,0-.84-.84h-1.16v8.36h2Zm0,10.2h-2v8.28h2Zm46.68-1.6-3.24-2.32-.44,1.16H-18l4.48-12.12h9.96l-1,2.56h19.4a2.381,2.381,0,0,1,1.74.74,2.427,2.427,0,0,1,.74,1.78v5.48L9.6-17.52l9.56,6.76H6.12l-4.16-3-6.16,3H-18.92Zm7.2-3.92L7.2-25v-.76a.742.742,0,0,0-.84-.84H-5.6l-.36.96h4.08ZM14.8-7.84a2.381,2.381,0,0,1,1.74.74,2.427,2.427,0,0,1,.74,1.78V6.44H4.92V3.56H7.28V-4.28a.742.742,0,0,0-.84-.84H-2.52L-5.96,6.44h-10.4L-12.6-5.12h-4.2V-7.84h5.08l.76-2.32H-1l-.68,2.32ZM33.6-24.68a.742.742,0,0,0-.84.84V-6.4H25.08V-24.84a2.427,2.427,0,0,1,.74-1.78,2.427,2.427,0,0,1,1.78-.74H46.08l-1.04-4.32H53.2l1.04,4.32h5.72v2.68H54.88l1.64,6.8,3.44-1.72v3.08l-2.8,1.4L59.24-6.4h-8L50-11.52l-2.84,1.44v-3.08l2.16-1.08L46.76-24.68ZM54.76-28.2l-.64-3.48h5.12l.64,3.48Zm-8.84,8.24H33.96v-2.68H45.92ZM33.64-18.04H43.8a2.381,2.381,0,0,1,1.74.74,2.427,2.427,0,0,1,.74,1.78v8.36H33.64Zm5.68,8.28h1.24V-14.6a.742.742,0,0,0-.84-.84h-.4ZM41.4,3.44H52.04V6.28H33V-5.56h8.4Zm2.12-1.52L42.6-4.92h6.68l.92,6.84Zm-19-6.76H32.2L31,5.32H23.32ZM60.96,5.32H53.28L52.08-4.84h7.68ZM83.8-10.64,85.92,5.88H78.84L77.8-3.4,76.24,5.88H67L70.4-13.4H65.92v-2.76h4.96l1.8-10.32h-.92l-1.12,5.44H65.2l1.84-11.08h5.92l-.6,2.88h12.2v2.76H81.72L79.96-16.16h4.68v2.76H79.52l-.48,2.76Zm16.24-17.04a2.381,2.381,0,0,1,1.74.74,2.427,2.427,0,0,1,.74,1.78V3.8H86.08V-27.68Zm-4.48,3.44a.742.742,0,0,0-.84-.84H93.44V1.12h2.12Zm25.6,15.4H107.4v-2.68h13.76V-28.28h-12.4V-31h34.96v2.72H131.28v16.76h13.8v2.68h-13.8V6.36H121.16Zm-1.4-5.32h-8.68L109.6-25.84h8.44Zm13.2,0,1.68-11.68h8.48l-1.48,11.68Zm42.84-3L150.08-14.6l-.32-2.96,1.4-.12,6.76-14.12H168l-5.76,13.12,12.84-1.12-2.36-8.48h10l3.92,14.04h-10Zm6.64,4.44a2.394,2.394,0,0,1,1.76.72,2.394,2.394,0,0,1,.72,1.76V6.44H152.08V-12.72Zm-7.52,3.48q0-.8-.84-.8H162.12V3.8h12.8Z" transform="translate(185.84 32.12)" fill="#fff"/>
</svg>
